<?xml version="1.0" encoding="UTF-8"?>
<svg version="1.1" xmlns="http://www.w3.org/2000/svg" width="512" height="512">
<path d="M0 0 C4.33422384 0.38623983 7.41706858 1.74547498 11.15698242 3.80639648 C12.16001152 4.33554405 12.16001152 4.33554405 13.18330383 4.87538147 C15.30307936 5.99654807 17.41184226 7.13669974 19.52026367 8.27905273 C21.6411036 9.41422815 23.76403377 10.54525641 25.88935852 11.67201233 C27.20683212 12.37193419 28.52143079 13.07730226 29.83268738 13.7888031 C34.1211956 16.26002943 34.1211956 16.26002943 38.83276367 17.34155273 C41.61827627 16.23350175 41.61827627 16.23350175 44.51635742 14.48217773 C45.60883789 13.86084961 46.70131836 13.23952148 47.8269043 12.59936523 C48.96321289 11.93678711 50.09952148 11.27420898 51.27026367 10.59155273 C52.96892578 9.62088867 52.96892578 9.62088867 54.7019043 8.63061523 C60.64098541 5.23404079 60.64098541 5.23404079 66.48144531 1.67260742 C69.94416854 -0.28760097 71.92477208 -0.41262108 75.83276367 0.34155273 C81.48329796 5.80454253 85.1306198 13.71112022 89.03634644 20.48184204 C90.16448873 22.43737768 91.29864355 24.3893091 92.43457031 26.34033203 C93.91744207 28.88739286 95.39871208 31.43537141 96.87866211 33.98413086 C99.75943833 38.9337104 102.65623492 43.8690829 105.68847656 48.72753906 C107.18700898 51.17459749 108.47952023 53.64617291 109.70507812 56.23974609 C113.40243061 63.6123032 116.89382243 68.68666664 124.77024841 71.7537384 C129.16685081 73.20914154 133.60068767 74.43062944 138.08276367 75.59155273 C140.81114901 76.3565251 143.53406756 77.13829164 146.2555542 77.9274292 C147.93564221 78.40838658 149.62065157 78.87259653 151.31085205 79.31671143 C157.09684166 80.88599137 161.33772601 82.92968299 165.70776367 87.15405273 C167.38697377 90.41918348 167.26997945 92.71890768 166.83276367 96.34155273 C162.76077171 105.22589882 152.96548209 109.72255304 144.30102539 113.12915039 C133.99795035 116.91963917 121.85912535 121.34155273 110.83276367 121.34155273 C110.91526367 122.47592773 110.99776367 123.61030273 111.08276367 124.77905273 C111.06432348 136.45169562 107.08965836 148.07350497 101.83276367 158.34155273 C102.47076904 158.30900391 103.10877441 158.27645508 103.76611328 158.24291992 C119.26597876 157.64725301 128.85202952 159.30318734 140.62670898 169.47045898 C144.74170202 172.96064343 149.09036577 176.15355743 153.39526367 179.40405273 C155.18728415 180.7681714 156.97895663 182.13274736 158.77026367 183.49780273 C159.63006836 184.15006836 160.48987305 184.80233398 161.37573242 185.47436523 C162.92131879 186.64891259 164.46350456 187.82796192 166.00073242 189.01342773 C174.39421667 195.4424795 182.32153895 199.60776044 192.39794922 202.85595703 C215.33373192 210.24954027 238.09148819 224.25729913 250.126297 245.63980103 C254.23853828 253.9029179 255.43762734 262.27825969 256.65698242 271.30249023 C256.89034295 272.94058844 257.12505643 274.5784944 257.36103821 276.21621704 C257.85080383 279.63897771 258.32973941 283.06300439 258.79980469 286.48852539 C259.39357644 290.81498065 260.00581701 295.13854163 260.6250639 299.46141624 C267.24473014 345.70134044 267.24473014 345.70134044 267.14526367 365.96655273 C267.14034912 367.19583496 267.13543457 368.42511719 267.13037109 369.69165039 C266.83429583 392.8766211 262.25409875 415.85128168 245.93041992 433.43920898 C237.03508667 441.50629891 226.69150321 447.07599609 215.33276367 450.84155273 C211.37693285 452.5369088 210.78594634 453.6733804 208.83276367 457.34155273 C209.72479492 457.36733398 210.61682617 457.39311523 211.53588867 457.41967773 C212.70635742 457.47639648 213.87682617 457.53311523 215.08276367 457.59155273 C216.24291992 457.63795898 217.40307617 457.68436523 218.59838867 457.73217773 C222.57644273 458.48166618 223.51172449 459.03366136 225.83276367 462.34155273 C226.42695663 465.77712612 226.36902452 469.17508854 226.32885742 472.65405273 C226.33031265 473.65992432 226.33176788 474.6657959 226.33326721 475.70214844 C226.33160851 477.82709655 226.32005055 479.9520567 226.29931641 482.0769043 C226.27036913 485.32970199 226.27870704 488.58086923 226.29174805 491.83374023 C226.28551034 493.89885232 226.27711915 495.96395927 226.26635742 498.02905273 C226.26929306 499.00205322 226.2722287 499.97505371 226.2752533 500.97753906 C226.26256912 501.88528076 226.24988495 502.79302246 226.23681641 503.72827148 C226.23141342 504.52450928 226.22601044 505.32074707 226.22044373 506.14111328 C225.71300188 509.02131062 224.88584411 510.25261358 222.83276367 512.34155273 C220.0783453 512.84294939 220.0783453 512.84294939 216.66233826 512.8449173 C215.36239205 512.85534829 214.06244585 512.86577928 212.72310734 512.87652636 C211.27194565 512.86787725 209.82078617 512.85885059 208.36962891 512.8494873 C206.83474605 512.85409321 205.2998676 512.86044404 203.76499844 512.86839628 C199.53606368 512.88515557 195.30748814 512.87681353 191.07855177 512.86445141 C186.52224208 512.85543008 181.96599574 512.86935609 177.40969849 512.88037109 C168.47950813 512.89819221 159.54945196 512.89430038 150.61925626 512.88272053 C143.36390659 512.87370057 136.10859463 512.87245596 128.85324097 512.8768158 C127.82207922 512.87742873 126.79091748 512.87804166 125.72850841 512.87867317 C123.6339662 512.87995202 121.53942399 512.88124887 119.4448818 512.88256353 C99.7872191 512.89397985 80.12963093 512.88083914 60.47198045 512.85936207 C43.59122763 512.84149014 26.71058482 512.84459395 9.82983398 512.86303711 C-9.75570329 512.88442527 -29.3411752 512.89288112 -48.92672253 512.88058805 C-51.01371955 512.87931381 -53.10071658 512.87805633 -55.18771362 512.8768158 C-56.21465554 512.87619869 -57.24159746 512.87558159 -58.29965883 512.87494579 C-65.54940802 512.87148672 -72.79911586 512.87733321 -80.04885864 512.88673401 C-88.87943669 512.89793257 -97.70987245 512.89495922 -106.54043412 512.87361103 C-111.04914958 512.86307165 -115.5576275 512.85902767 -120.0663414 512.87220764 C-124.18928787 512.88407798 -128.31177537 512.87765843 -132.43467987 512.85629743 C-133.93059135 512.85180847 -135.42654117 512.85414869 -136.92242825 512.86380059 C-138.94719629 512.87586846 -140.97207209 512.86116415 -142.99681091 512.8449173 C-144.12409324 512.84426789 -145.25137556 512.84361848 -146.41281796 512.84294939 C-149.16723633 512.34155273 -149.16723633 512.34155273 -151.02865791 510.44761992 C-152.34493201 508.012863 -152.55257947 506.48550396 -152.57128906 503.72827148 C-152.59031532 502.36665894 -152.59031532 502.36665894 -152.60972595 500.97753906 C-152.60679031 500.00453857 -152.60385468 499.03153809 -152.60083008 498.02905273 C-152.60607193 497.02318115 -152.61131378 496.01730957 -152.61671448 494.98095703 C-152.6231328 492.8560478 -152.62180015 490.73110302 -152.61328125 488.60620117 C-152.60476702 485.3532803 -152.63354308 482.10211282 -152.6652832 478.84936523 C-152.66689519 476.78426159 -152.66631774 474.71915484 -152.66333008 472.65405273 C-152.68018105 471.194552 -152.68018105 471.194552 -152.69737244 469.70556641 C-152.62805701 462.99830372 -152.62805701 462.99830372 -150.33837891 459.73510742 C-147.34472635 457.81362212 -144.9486596 457.73280967 -141.41723633 457.59155273 C-140.24676758 457.53483398 -139.07629883 457.47811523 -137.87036133 457.41967773 C-136.97833008 457.39389648 -136.08629883 457.36811523 -135.16723633 457.34155273 C-136.29068446 454.69920272 -137.30512853 452.80309998 -139.89282227 451.41772461 C-142.0921968 450.58076663 -144.30672904 449.82651403 -146.54223633 449.09155273 C-163.77782948 442.91141826 -175.49632706 432.49682579 -184.16723633 416.34155273 C-204.29718908 373.22080124 -189.70763777 317.61613862 -182.97192383 272.90014648 C-182.74392593 271.37241859 -182.74392593 271.37241859 -182.51132202 269.81382751 C-179.3009775 248.69097277 -172.24643756 235.00491372 -155.16723633 221.34155273 C-150.97198634 218.40055274 -146.64807942 215.82255646 -142.16723633 213.34155273 C-141.56814453 213.00913574 -140.96905273 212.67671875 -140.35180664 212.33422852 C-133.37670897 208.51783799 -126.48625842 205.35660633 -118.88256836 203.00610352 C-107.39451813 199.4178908 -98.98875992 193.81593748 -89.65161133 186.32104492 C-87.03905249 184.23941883 -84.39163068 182.21121573 -81.72973633 180.19311523 C-80.82054443 179.50338623 -79.91135254 178.81365723 -78.97460938 178.10302734 C-77.15374245 176.72721443 -75.32970832 175.35558266 -73.50244141 173.98828125 C-68.06796111 169.90484444 -68.06796111 169.90484444 -63.05395508 165.32983398 C-56.1658946 158.8295458 -50.04164248 158.68768177 -40.91723633 158.77905273 C-36.99425322 158.89381792 -33.08281914 159.07582003 -29.16723633 159.34155273 C-29.5771582 158.31416992 -29.98708008 157.28678711 -30.40942383 156.22827148 C-35.0221956 144.4598627 -37.61133804 134.09714076 -37.16723633 121.34155273 C-38.27067383 121.23069336 -39.37411133 121.11983398 -40.51098633 121.00561523 C-56.70227597 118.96391922 -80.28828748 113.52536362 -91.16723633 100.34155273 C-93.38942394 96.54376723 -93.70016069 93.7572117 -93.16723633 89.34155273 C-89.81114527 84.50556174 -87.26927136 82.48770096 -81.60473633 80.52905273 C-80.94143311 80.28662842 -80.27812988 80.0442041 -79.59472656 79.79443359 C-74.8575057 78.10856945 -70.06838349 76.76810632 -65.20629883 75.48999023 C-50.79445078 72.34848939 -50.79445078 72.34848939 -39.72729492 63.57861328 C-38.39011164 61.00514644 -37.26377838 58.38074231 -36.19213867 55.68676758 C-34.11006548 50.92250005 -31.27057589 46.54611039 -28.60473633 42.09155273 C-27.40833051 40.04347099 -26.21438328 37.99395135 -25.02270508 35.94311523 C-21.1943647 29.3816684 -17.35250811 22.82833249 -13.49075317 16.28649902 C-12.7781406 15.07839817 -12.06660314 13.86966248 -11.35617065 12.66027832 C-10.36383817 10.97157781 -9.36719504 9.2854126 -8.37036133 7.59936523 C-7.79962891 6.63144043 -7.22889648 5.66351562 -6.64086914 4.66625977 C-3.95316078 0.42630632 -3.95316078 0.42630632 0 0 Z " fill="#BBC6DC" transform="translate(219.167236328125,-0.341552734375)"/>
<path d="M0 0 C4.33422384 0.38623983 7.41706858 1.74547498 11.15698242 3.80639648 C12.16001152 4.33554405 12.16001152 4.33554405 13.18330383 4.87538147 C15.30307936 5.99654807 17.41184226 7.13669974 19.52026367 8.27905273 C21.6411036 9.41422815 23.76403377 10.54525641 25.88935852 11.67201233 C27.20683212 12.37193419 28.52143079 13.07730226 29.83268738 13.7888031 C34.1211956 16.26002943 34.1211956 16.26002943 38.83276367 17.34155273 C41.61827627 16.23350175 41.61827627 16.23350175 44.51635742 14.48217773 C45.60883789 13.86084961 46.70131836 13.23952148 47.8269043 12.59936523 C48.96321289 11.93678711 50.09952148 11.27420898 51.27026367 10.59155273 C52.96892578 9.62088867 52.96892578 9.62088867 54.7019043 8.63061523 C60.64098541 5.23404079 60.64098541 5.23404079 66.48144531 1.67260742 C69.94416854 -0.28760097 71.92477208 -0.41262108 75.83276367 0.34155273 C81.48329796 5.80454253 85.1306198 13.71112022 89.03634644 20.48184204 C90.16448873 22.43737768 91.29864355 24.3893091 92.43457031 26.34033203 C93.91744207 28.88739286 95.39871208 31.43537141 96.87866211 33.98413086 C99.75943833 38.9337104 102.65623492 43.8690829 105.68847656 48.72753906 C107.18700898 51.17459749 108.47952023 53.64617291 109.70507812 56.23974609 C113.40243061 63.6123032 116.89382243 68.68666664 124.77024841 71.7537384 C129.16685081 73.20914154 133.60068767 74.43062944 138.08276367 75.59155273 C140.81114901 76.3565251 143.53406756 77.13829164 146.2555542 77.9274292 C147.93564221 78.40838658 149.62065157 78.87259653 151.31085205 79.31671143 C157.09684166 80.88599137 161.33772601 82.92968299 165.70776367 87.15405273 C167.38697377 90.41918348 167.26997945 92.71890768 166.83276367 96.34155273 C162.76077171 105.22589882 152.96548209 109.72255304 144.30102539 113.12915039 C133.99795035 116.91963917 121.85912535 121.34155273 110.83276367 121.34155273 C110.91526367 122.47592773 110.99776367 123.61030273 111.08276367 124.77905273 C111.06432348 136.45169562 107.08965836 148.07350497 101.83276367 158.34155273 C102.47076904 158.30900391 103.10877441 158.27645508 103.76611328 158.24291992 C119.26597876 157.64725301 128.85202952 159.30318734 140.62670898 169.47045898 C144.74170202 172.96064343 149.09036577 176.15355743 153.39526367 179.40405273 C155.18728415 180.7681714 156.97895663 182.13274736 158.77026367 183.49780273 C159.63006836 184.15006836 160.48987305 184.80233398 161.37573242 185.47436523 C162.92131879 186.64891259 164.46350456 187.82796192 166.00073242 189.01342773 C174.39421667 195.4424795 182.32153895 199.60776044 192.39794922 202.85595703 C215.33373192 210.24954027 238.09148819 224.25729913 250.126297 245.63980103 C254.23853828 253.9029179 255.43762734 262.27825969 256.65698242 271.30249023 C256.89034295 272.94058844 257.12505643 274.5784944 257.36103821 276.21621704 C257.85080383 279.63897771 258.32973941 283.06300439 258.79980469 286.48852539 C259.39357644 290.81498065 260.00581701 295.13854163 260.6250639 299.46141624 C267.24473014 345.70134044 267.24473014 345.70134044 267.14526367 365.96655273 C267.14034912 367.19583496 267.13543457 368.42511719 267.13037109 369.69165039 C266.83429583 392.8766211 262.25409875 415.85128168 245.93041992 433.43920898 C235.90942059 442.52715437 224.17301928 448.93593287 210.83276367 451.34155273 C210.99445069 450.83623016 211.15613771 450.33090759 211.32272434 449.81027222 C212.00916 446.48774982 211.98776284 443.21936268 211.99339294 439.84204102 C211.99848076 439.08346581 212.00356858 438.32489061 212.00881058 437.54332829 C212.02451583 434.99950905 212.03305513 432.45571819 212.04150391 429.91186523 C212.05104413 428.08840251 212.06093537 426.2649416 212.07115173 424.44148254 C212.10252431 418.44986109 212.12280555 412.45822582 212.14135742 406.46655273 C212.1463034 404.9360623 212.1463034 404.9360623 212.15134931 403.37465286 C212.18213507 393.74626669 212.20883482 384.11787734 212.22576809 374.48945618 C212.24765726 362.18847083 212.28959232 349.88792293 212.35920566 337.58711243 C212.40652539 328.93044279 212.43071248 320.27389083 212.43796498 311.61709595 C212.44291006 306.45108248 212.45788178 301.28556216 212.49770927 296.11968994 C212.53472884 291.25382139 212.54293525 286.38872452 212.52970314 281.52274132 C212.52975684 279.74425854 212.53995055 277.96574023 212.56145477 276.18738747 C212.69306977 264.68080013 211.91184051 255.1094881 203.80814266 246.08750916 C196.04728985 238.50248783 187.64056049 237.89975103 177.28311157 237.94714355 C176.02968126 237.94105245 174.77625094 237.93496135 173.48483789 237.92868567 C170.02186788 237.91233978 166.55912634 237.91459304 163.09613132 237.92006063 C159.35504959 237.92273746 155.61402785 237.90818687 151.87297058 237.89596558 C144.5500522 237.8749372 137.22721305 237.87036922 129.90426804 237.87215346 C123.95058721 237.87346234 117.99693104 237.86965053 112.04325485 237.86222839 C110.32671718 237.86012915 108.61017951 237.85803154 106.89364183 237.85593557 C105.61199357 237.85437028 105.61199357 237.85437028 104.30445342 237.85277337 C88.15412049 237.83388162 72.00383301 237.83491799 55.85349362 237.84174269 C41.08790683 237.84731797 26.32249355 237.8264915 11.55694731 237.79338223 C-3.61491568 237.75962665 -18.78669559 237.74447918 -33.95859683 237.74909925 C-42.4722319 237.75134198 -50.98570659 237.74612957 -59.49930954 237.72120667 C-66.74710373 237.70016944 -73.99464957 237.69662551 -81.24245404 237.71550626 C-84.9380011 237.72464912 -88.63308541 237.72585233 -92.32859612 237.7051506 C-96.34062832 237.68292492 -100.35157516 237.69969389 -104.36361694 237.72009277 C-105.5235527 237.70757493 -106.68348845 237.69505708 -107.87857378 237.6821599 C-116.57353041 237.7768195 -123.05903708 239.93131878 -129.78833008 245.51733398 C-130.38774414 246.22245117 -130.9871582 246.92756836 -131.60473633 247.65405273 C-132.53092773 248.70012695 -132.53092773 248.70012695 -133.47583008 249.76733398 C-137.41460595 255.76191436 -138.61389509 261.47875007 -138.52799988 268.5546875 C-138.53184479 269.73487835 -138.53184479 269.73487835 -138.53576738 270.93891144 C-138.54067666 273.55380791 -138.52426012 276.16811644 -138.5078125 278.78295898 C-138.50696561 280.66588833 -138.50744258 282.54881867 -138.50914001 284.43174744 C-138.50999897 289.52830598 -138.49238934 294.6246517 -138.47141814 299.72116089 C-138.4526347 305.05294713 -138.45089958 310.38473851 -138.44734192 315.71655273 C-138.43802636 325.80634233 -138.41341916 335.89603414 -138.38329345 345.98578072 C-138.34973424 357.47545574 -138.3332596 368.96513549 -138.31820714 380.45484734 C-138.28686921 404.0838033 -138.23411819 427.71267253 -138.16723633 451.34155273 C-139.93146866 450.87154326 -141.69490847 450.39855826 -143.45800781 449.92431641 C-144.44010727 449.66124191 -145.42220673 449.39816742 -146.43406677 449.12712097 C-160.63862384 445.04444383 -174.01492361 434.56113158 -181.30004883 421.70483398 C-205.09708917 377.32759933 -190.05329759 319.91085038 -182.97192383 272.90014648 C-182.74392593 271.37241859 -182.74392593 271.37241859 -182.51132202 269.81382751 C-179.3009775 248.69097277 -172.24643756 235.00491372 -155.16723633 221.34155273 C-150.97198634 218.40055274 -146.64807942 215.82255646 -142.16723633 213.34155273 C-141.56814453 213.00913574 -140.96905273 212.67671875 -140.35180664 212.33422852 C-133.37670897 208.51783799 -126.48625842 205.35660633 -118.88256836 203.00610352 C-107.39451813 199.4178908 -98.98875992 193.81593748 -89.65161133 186.32104492 C-87.03905249 184.23941883 -84.39163068 182.21121573 -81.72973633 180.19311523 C-80.82054443 179.50338623 -79.91135254 178.81365723 -78.97460938 178.10302734 C-77.15374245 176.72721443 -75.32970832 175.35558266 -73.50244141 173.98828125 C-68.06796111 169.90484444 -68.06796111 169.90484444 -63.05395508 165.32983398 C-56.1658946 158.8295458 -50.04164248 158.68768177 -40.91723633 158.77905273 C-36.99425322 158.89381792 -33.08281914 159.07582003 -29.16723633 159.34155273 C-29.5771582 158.31416992 -29.98708008 157.28678711 -30.40942383 156.22827148 C-35.0221956 144.4598627 -37.61133804 134.09714076 -37.16723633 121.34155273 C-38.27067383 121.23069336 -39.37411133 121.11983398 -40.51098633 121.00561523 C-56.70227597 118.96391922 -80.28828748 113.52536362 -91.16723633 100.34155273 C-93.38942394 96.54376723 -93.70016069 93.7572117 -93.16723633 89.34155273 C-89.81114527 84.50556174 -87.26927136 82.48770096 -81.60473633 80.52905273 C-80.94143311 80.28662842 -80.27812988 80.0442041 -79.59472656 79.79443359 C-74.8575057 78.10856945 -70.06838349 76.76810632 -65.20629883 75.48999023 C-50.79445078 72.34848939 -50.79445078 72.34848939 -39.72729492 63.57861328 C-38.39011164 61.00514644 -37.26377838 58.38074231 -36.19213867 55.68676758 C-34.11006548 50.92250005 -31.27057589 46.54611039 -28.60473633 42.09155273 C-27.40833051 40.04347099 -26.21438328 37.99395135 -25.02270508 35.94311523 C-21.1943647 29.3816684 -17.35250811 22.82833249 -13.49075317 16.28649902 C-12.7781406 15.07839817 -12.06660314 13.86966248 -11.35617065 12.66027832 C-10.36383817 10.97157781 -9.36719504 9.2854126 -8.37036133 7.59936523 C-7.79962891 6.63144043 -7.22889648 5.66351562 -6.64086914 4.66625977 C-3.95316078 0.42630632 -3.95316078 0.42630632 0 0 Z " fill="#335F8C" transform="translate(219.167236328125,-0.341552734375)"/>
<path d="M0 0 C1.87225502 -0.01902626 1.87225502 -0.01902626 3.78233337 -0.03843689 C5.1459876 -0.03638536 6.5096407 -0.03339727 7.87329102 -0.02954102 C9.27189895 -0.03410202 10.67050463 -0.03940736 12.06910706 -0.04542542 C15.0004283 -0.0543611 17.93147718 -0.05192875 20.86279297 -0.04199219 C24.61690631 -0.03050581 28.37007857 -0.05070505 32.12406826 -0.07990932 C35.01261861 -0.09826868 37.90094337 -0.09797944 40.78953743 -0.0922718 C42.17341494 -0.09211853 43.55730768 -0.09816796 44.94112968 -0.11056328 C46.87736725 -0.12546205 48.81375953 -0.11217192 50.75 -0.09765625 C51.85125717 -0.09749008 52.95251434 -0.09732391 54.08714294 -0.09715271 C56.93969727 0.40405273 56.93969727 0.40405273 60.93969727 4.40405273 C60.93969727 8.36405273 60.93969727 12.32405273 60.93969727 16.40405273 C112.41969727 16.40405273 163.89969727 16.40405273 216.93969727 16.40405273 C216.93969727 12.44405273 216.93969727 8.48405273 216.93969727 4.40405273 C219.93969727 0.40405273 219.93969727 0.40405273 222.70996094 -0.09715271 C223.83120361 -0.09731888 224.95244629 -0.09748505 226.10766602 -0.09765625 C227.37908447 -0.1070372 228.65050293 -0.11641815 229.96044922 -0.12608337 C231.34937207 -0.11560536 232.73828844 -0.10423639 234.12719727 -0.09204102 C235.55061924 -0.09219598 236.97404164 -0.09368446 238.39746094 -0.09645081 C241.38015402 -0.09783538 244.36236656 -0.08526794 247.3449707 -0.0625 C251.16857634 -0.03411444 254.99138349 -0.03685153 258.81504822 -0.04959011 C261.7541791 -0.05654458 264.69312536 -0.04876081 267.63223267 -0.03633308 C269.04203585 -0.03181627 270.45185883 -0.0314838 271.86166382 -0.03539848 C273.83171857 -0.03830806 275.80176964 -0.01965309 277.77172852 0 C278.89297119 0.00540298 280.01421387 0.01080597 281.16943359 0.01637268 C283.93969727 0.40405273 283.93969727 0.40405273 285.80688477 1.71958923 C287.69162371 4.52214832 287.21804195 7.29086246 287.12719727 10.59155273 C287.10012695 11.86385742 287.07305664 13.13616211 287.04516602 14.44702148 C286.99295898 15.91075195 286.99295898 15.91075195 286.93969727 17.40405273 C287.82153687 17.35861328 287.82153687 17.35861328 288.72119141 17.31225586 C294.50890811 17.01877827 300.29723034 16.75423167 306.08764648 16.51977539 C307.85507161 16.44806168 309.62236468 16.37289251 311.3894043 16.29223633 C313.44701396 16.20360503 315.50590788 16.14631856 317.56469727 16.09155273 C319.2855957 16.03547852 319.2855957 16.03547852 321.04125977 15.97827148 C323.93969727 16.40405273 323.93969727 16.40405273 326.08984375 17.78613281 C328.97174477 21.86461039 328.49209013 25.84035822 328.43579102 30.71655273 C328.43724625 31.72242432 328.43870148 32.7282959 328.44020081 33.76464844 C328.43854211 35.88959655 328.42698414 38.0145567 328.40625 40.1394043 C328.37730273 43.39220199 328.38564063 46.64336923 328.39868164 49.89624023 C328.39244393 51.96135232 328.38405274 54.02645927 328.37329102 56.09155273 C328.37622665 57.06455322 328.37916229 58.03755371 328.38218689 59.04003906 C328.36950272 59.94778076 328.35681854 60.85552246 328.34375 61.79077148 C328.33834702 62.58700928 328.33294403 63.38324707 328.32737732 64.20361328 C327.81993547 67.08381062 326.99277771 68.31511358 324.93969727 70.40405273 C322.18527889 70.90544939 322.18527889 70.90544939 318.76927185 70.9074173 C316.81935255 70.92306378 316.81935255 70.92306378 314.83004093 70.93902636 C313.37887924 70.93037725 311.92771976 70.92135059 310.4765625 70.9119873 C308.94167965 70.91659321 307.40680119 70.92294404 305.87193203 70.93089628 C301.64299727 70.94765557 297.41442173 70.93931353 293.18548536 70.92695141 C288.62917567 70.91793008 284.07292933 70.93185609 279.51663208 70.94287109 C270.58644172 70.96069221 261.65638555 70.95680038 252.72618985 70.94522053 C245.47084018 70.93620057 238.21552822 70.93495596 230.96017456 70.9393158 C229.92901282 70.93992873 228.89785107 70.94054166 227.83544201 70.94117317 C225.74089979 70.94245202 223.64635758 70.94374887 221.55181539 70.94506353 C201.8941527 70.95647985 182.23656452 70.94333914 162.57891405 70.92186207 C145.69816122 70.90399014 128.81751841 70.90709395 111.93676758 70.92553711 C92.3512303 70.94692527 72.76575839 70.95538112 53.18021107 70.94308805 C51.09321405 70.94181381 49.00621701 70.94055633 46.91921997 70.9393158 C45.89227805 70.93869869 44.86533613 70.93808159 43.80727476 70.93744579 C36.55752558 70.93398672 29.30781773 70.93983321 22.05807495 70.94923401 C13.2274969 70.96043257 4.39706114 70.95745922 -4.43350053 70.93611103 C-8.94221599 70.92557165 -13.45069391 70.92152767 -17.95940781 70.93470764 C-22.08235428 70.94657798 -26.20484177 70.94015843 -30.32774627 70.91879743 C-31.82365776 70.91430847 -33.31960758 70.91664869 -34.81549466 70.92630059 C-36.8402627 70.93836846 -38.8651385 70.92366415 -40.88987732 70.9074173 C-42.01715964 70.90676789 -43.14444197 70.90611848 -44.30588436 70.90544939 C-47.06030273 70.40405273 -47.06030273 70.40405273 -48.92172432 68.51011992 C-50.23799841 66.075363 -50.44564588 64.54800396 -50.46435547 61.79077148 C-50.47703964 60.88302979 -50.48972382 59.97528809 -50.50279236 59.04003906 C-50.49985672 58.06703857 -50.49692108 57.09403809 -50.49389648 56.09155273 C-50.49913834 55.08568115 -50.50438019 54.07980957 -50.50978088 53.04345703 C-50.51619921 50.9185478 -50.51486655 48.79360302 -50.50634766 46.66870117 C-50.49783343 43.4157803 -50.52660949 40.16461282 -50.55834961 36.91186523 C-50.55996159 34.84676159 -50.55938414 32.78165484 -50.55639648 30.71655273 C-50.57324745 29.257052 -50.57324745 29.257052 -50.59043884 27.76806641 C-50.52107522 21.05613975 -50.52107522 21.05613975 -48.21044922 17.78613281 C-45.226769 15.86827046 -43.22017771 15.97637142 -39.68530273 16.09155273 C-37.72270508 16.14375977 -37.72270508 16.14375977 -35.72045898 16.19702148 C-34.16698193 16.26393733 -32.61360305 16.33315264 -31.06030273 16.40405273 C-29.10067078 16.48356528 -27.14103516 16.56298743 -25.18139648 16.64233398 C-19.80626789 16.8692877 -14.43307676 17.1272043 -9.06030273 17.40405273 C-9.11250977 15.94032227 -9.11250977 15.94032227 -9.16577148 14.44702148 C-9.1928418 13.1747168 -9.21991211 11.90241211 -9.24780273 10.59155273 C-9.30000977 8.69469727 -9.30000977 8.69469727 -9.35327148 6.75952148 C-9.06030273 3.40405273 -9.06030273 3.40405273 -7.92076111 1.71958923 C-5.25410785 -0.16601043 -3.24845311 0.01594907 0 0 Z " fill="#4A5254" transform="translate(117.060302734375,441.595947265625)"/>
<path d="M0 0 C4.33422384 0.38623983 7.41706858 1.74547498 11.15698242 3.80639648 C12.16001152 4.33554405 12.16001152 4.33554405 13.18330383 4.87538147 C15.30307936 5.99654807 17.41184226 7.13669974 19.52026367 8.27905273 C21.6411036 9.41422815 23.76403377 10.54525641 25.88935852 11.67201233 C27.20683212 12.37193419 28.52143079 13.07730226 29.83268738 13.7888031 C34.1211956 16.26002943 34.1211956 16.26002943 38.83276367 17.34155273 C41.61827627 16.23350175 41.61827627 16.23350175 44.51635742 14.48217773 C45.60883789 13.86084961 46.70131836 13.23952148 47.8269043 12.59936523 C48.96321289 11.93678711 50.09952148 11.27420898 51.27026367 10.59155273 C52.96892578 9.62088867 52.96892578 9.62088867 54.7019043 8.63061523 C60.64098541 5.23404079 60.64098541 5.23404079 66.48144531 1.67260742 C69.94416854 -0.28760097 71.92477208 -0.41262108 75.83276367 0.34155273 C81.48329796 5.80454253 85.1306198 13.71112022 89.03634644 20.48184204 C90.16448873 22.43737768 91.29864355 24.3893091 92.43457031 26.34033203 C93.91744207 28.88739286 95.39871208 31.43537141 96.87866211 33.98413086 C99.75943833 38.9337104 102.65623492 43.8690829 105.68847656 48.72753906 C107.18700898 51.17459749 108.47952023 53.64617291 109.70507812 56.23974609 C113.40243061 63.6123032 116.89382243 68.68666664 124.77024841 71.7537384 C129.16685081 73.20914154 133.60068767 74.43062944 138.08276367 75.59155273 C140.81114901 76.3565251 143.53406756 77.13829164 146.2555542 77.9274292 C147.93564221 78.40838658 149.62065157 78.87259653 151.31085205 79.31671143 C157.09684166 80.88599137 161.33772601 82.92968299 165.70776367 87.15405273 C167.38697377 90.41918348 167.26997945 92.71890768 166.83276367 96.34155273 C162.75952965 105.22860878 152.9496175 109.73939202 144.27685547 113.13574219 C132.50817464 117.45482925 120.13241035 120.3409972 107.84033203 122.70532227 C100.39970757 124.16869866 93.07667687 125.98594996 85.74291992 127.91577148 C83.80330749 128.41802299 81.86369201 128.92026307 79.92390347 129.42183399 C75.22045323 130.63911949 70.51922224 131.86482423 65.81982422 133.09765625 C63.15429467 133.79654521 60.48750856 134.49022408 57.81919861 135.17842102 C55.32733857 135.82143199 52.83743322 136.47208186 50.34986877 137.1315155 C38.5637754 140.15691455 30.74158358 139.10034536 19.07885742 136.01733398 C17.73316458 135.66962179 16.38721646 135.32289622 15.04103088 134.97709656 C11.49842055 134.06490773 7.95869419 133.14202536 4.41967773 132.21600342 C-1.85738576 130.57490495 -8.13872994 128.95031613 -14.42114258 127.32983398 C-15.09867144 127.1546908 -15.77620029 126.97954762 -16.47426033 126.79909706 C-27.0652831 124.06619475 -37.69441058 121.59795317 -48.40356445 119.36889648 C-63.41934592 116.21049834 -83.22489519 111.89055446 -92.16723633 98.34155273 C-93.74179372 95.19243795 -93.51522751 92.82146458 -93.16723633 89.34155273 C-89.82096773 84.49843201 -87.26735144 82.4870371 -81.60473633 80.52905273 C-80.94143311 80.28662842 -80.27812988 80.0442041 -79.59472656 79.79443359 C-74.8575057 78.10856945 -70.06838349 76.76810632 -65.20629883 75.48999023 C-50.79445078 72.34848939 -50.79445078 72.34848939 -39.72729492 63.57861328 C-38.39011164 61.00514644 -37.26377838 58.38074231 -36.19213867 55.68676758 C-34.11006548 50.92250005 -31.27057589 46.54611039 -28.60473633 42.09155273 C-27.40833051 40.04347099 -26.21438328 37.99395135 -25.02270508 35.94311523 C-21.1943647 29.3816684 -17.35250811 22.82833249 -13.49075317 16.28649902 C-12.7781406 15.07839817 -12.06660314 13.86966248 -11.35617065 12.66027832 C-10.36383817 10.97157781 -9.36719504 9.2854126 -8.37036133 7.59936523 C-7.79962891 6.63144043 -7.22889648 5.66351562 -6.64086914 4.66625977 C-3.95316078 0.42630632 -3.95316078 0.42630632 0 0 Z " fill="#2E567E" transform="translate(219.167236328125,-0.341552734375)"/>
<path d="M0 0 C11.14288951 6.28732872 17.95818409 14.87455228 22 27 C22.08378628 29.2838517 22.10729915 31.570101 22.09765625 33.85546875 C22.0962413 34.51710526 22.09482635 35.17874176 22.09336853 35.86042786 C22.08777996 37.96949828 22.07522965 40.07846177 22.0625 42.1875 C22.05748352 43.61913909 22.05292087 45.05077985 22.04882812 46.48242188 C22.0378143 49.98831588 22.02055755 53.4941475 22 57 C23.11366943 57.14767822 24.22733887 57.29535645 25.37475586 57.44750977 C30.11680202 58.17020156 32.65971843 59.61385644 36 63 C40.30981886 69.07248635 43.09946325 74.20327426 43.19287109 81.72143555 C43.20893402 82.89663254 43.22499695 84.07182953 43.24154663 85.28263855 C43.28606109 90.66230728 43.32750582 96.04183063 43.35009766 101.42163086 C43.36341079 104.25692191 43.39121591 107.09148875 43.43212891 109.92651367 C43.49115653 114.01753755 43.50878598 118.10779089 43.5234375 122.19921875 C43.54610687 123.46094406 43.56877625 124.72266937 43.59213257 126.02262878 C43.5771193 132.29629236 43.26640458 137.0428221 39.75894165 142.34455872 C33.70443725 148.04280149 28.41778785 148.58714737 20.41821289 148.53344727 C19.37665543 148.54206284 18.33509796 148.55067841 17.26197815 148.55955505 C13.83194866 148.58218749 10.402738 148.57548062 6.97265625 148.56640625 C4.58043679 148.5716431 2.1882194 148.57791981 -0.20399475 148.58518982 C-5.21316253 148.59558913 -10.22204614 148.59103912 -15.23120117 148.57641602 C-21.64155962 148.5592317 -28.05102145 148.5827228 -34.46127987 148.61790562 C-39.40021168 148.63989546 -44.33892949 148.63843413 -49.27789497 148.6301403 C-51.64092555 148.62932162 -54.00397198 148.63616906 -56.36695671 148.65091133 C-59.67479996 148.66838499 -62.98103881 148.65378917 -66.28881836 148.63110352 C-67.2589386 148.64279572 -68.22905884 148.65448792 -69.22857666 148.66653442 C-75.67469938 148.57685973 -80.02986317 147.1918099 -85 143 C-90.1439194 136.8083583 -89.58174707 130.29145875 -89.53125 122.5078125 C-89.5350769 121.2072995 -89.53890381 119.9067865 -89.54284668 118.56686401 C-89.54872169 115.8215623 -89.54024744 113.07678353 -89.52148438 110.33154297 C-89.49873989 106.83579721 -89.51180002 103.34128322 -89.53577423 99.84558296 C-89.55382262 96.48289792 -89.54113064 93.12053238 -89.53125 89.7578125 C-89.53934692 88.51379669 -89.54744385 87.26978088 -89.55578613 85.98806763 C-89.45630577 76.6940433 -87.77380788 68.77380788 -81 62 C-74.73311451 57.52546918 -70.05205557 55.84874853 -62.31567383 55.88647461 C-61.5349501 55.88632858 -60.75422638 55.88618256 -59.94984436 55.8860321 C-57.36887841 55.88672886 -54.7879846 55.89451018 -52.20703125 55.90234375 C-50.41769958 55.90420877 -48.6283674 55.90563228 -46.83903503 55.90663147 C-42.12902416 55.91045001 -37.41904411 55.92027467 -32.70904541 55.93133545 C-27.90303972 55.94156379 -23.09702906 55.94613214 -18.29101562 55.95117188 C-8.86066354 55.96189751 0.56966567 55.97896601 10 56 C9.97695922 51.70718702 9.89931868 47.41695944 9.8125 43.125 C9.80669922 41.92101562 9.80089844 40.71703125 9.79492188 39.4765625 C9.58393414 30.84950825 8.27673009 23.59125617 2.22729492 17.09692383 C-7.21396336 8.39501617 -17.81050648 8.45541692 -29.92285156 8.86816406 C-38.23998412 9.39604977 -45.08722489 13.56088712 -50.5390625 19.74609375 C-53.99879732 24.61197811 -54.82133597 29.39111428 -55.4453125 35.265625 C-56.06241993 38.30770386 -56.80913296 39.81426379 -59 42 C-62.5625 42.375 -62.5625 42.375 -66 42 C-68.70476889 39.29523111 -68.33044845 37.77797113 -68.375 34 C-68.17638794 23.39177951 -64.20215564 15.67279155 -57 8 C-51.02757136 2.28724217 -44.84897683 -0.60670542 -37 -3 C-25.98224086 -6.67258638 -10.28208496 -4.88255431 0 0 Z " fill="#4A5255" transform="translate(279,276)"/>
<path d="M0 0 C4.39533305 0.3148772 7.4390397 1.66064109 11.21948242 3.74389648 C11.88816849 4.09666153 12.55685455 4.44942657 13.24580383 4.81288147 C15.36557936 5.93404807 17.47434226 7.07419974 19.58276367 8.21655273 C21.7036036 9.35172815 23.82653377 10.48275641 25.95185852 11.60951233 C27.26933212 12.30943419 28.58393079 13.01480226 29.89518738 13.7263031 C34.1836956 16.19752943 34.1836956 16.19752943 38.89526367 17.27905273 C41.68077627 16.17100175 41.68077627 16.17100175 44.57885742 14.41967773 C45.67133789 13.79834961 46.76381836 13.17702148 47.8894043 12.53686523 C49.59386719 11.54299805 49.59386719 11.54299805 51.33276367 10.52905273 C52.46520508 9.88194336 53.59764648 9.23483398 54.7644043 8.56811523 C60.70348541 5.17154079 60.70348541 5.17154079 66.54394531 1.61010742 C70.00666854 -0.35010097 71.98727208 -0.47512108 75.89526367 0.27905273 C82.03654119 6.2164977 85.96163754 14.98049428 90.20776367 22.34155273 C91.34847459 24.30577774 92.4909828 26.26895031 93.6335144 28.2321167 C94.3785066 29.51257771 95.12291985 30.79337576 95.86672974 32.07452393 C98.50773427 36.62259841 101.17952707 41.15027263 103.89526367 45.65405273 C104.55268555 46.7484668 105.21010742 47.84288086 105.88745117 48.97045898 C107.40155919 51.46549691 108.92850439 53.95057855 110.46557617 56.43139648 C110.89225586 57.1263623 111.31893555 57.82132813 111.75854492 58.53735352 C112.57987545 59.87455844 113.40768776 61.20781078 114.24291992 62.53637695 C115.18847006 64.08130829 116.05059869 65.67673599 116.89526367 67.27905273 C116.56526367 67.93905273 116.23526367 68.59905273 115.89526367 69.27905273 C113.96606445 69.60961914 113.96606445 69.60961914 111.46557617 69.75561523 C106.05100101 70.20188195 101.02077155 71.2919963 95.77026367 72.65405273 C94.78469482 72.90300293 93.79912598 73.15195313 92.78369141 73.40844727 C85.74350306 75.21270873 78.74571627 77.15195759 71.75073242 79.12280273 C69.95468077 79.62625475 68.15861951 80.12967251 66.36254883 80.63305664 C62.80202565 81.63161969 59.24677528 82.64676656 55.69360352 83.67114258 C54.02268352 84.14250929 52.35162788 84.61339549 50.68041992 85.08374023 C49.92802536 85.30533813 49.1756308 85.52693604 48.4004364 85.75524902 C38.05379293 88.63047282 29.59204409 86.73644011 19.37913132 83.94552612 C17.12759598 83.33032124 14.87273212 82.72900019 12.61660767 82.13085938 C7.83112256 80.85934545 3.05061312 79.56971466 -1.72973633 78.27905273 C-7.28083099 76.78270097 -12.8338372 75.29393599 -18.39048386 73.81832886 C-20.6031744 73.227402 -22.81276415 72.62578161 -25.02236938 72.0234375 C-26.38775073 71.65894518 -27.75325358 71.29490761 -29.11889648 70.93139648 C-30.30198395 70.61162842 -31.48507141 70.29186035 -32.70401001 69.96240234 C-36.25705053 69.24844638 -39.49043502 69.157209 -43.10473633 69.27905273 C-41.53412681 63.49507159 -38.6205224 58.79484736 -35.54223633 53.71655273 C-34.37086355 51.76130253 -33.20033601 49.80554579 -32.03051758 47.84936523 C-31.08619873 46.27396973 -31.08619873 46.27396973 -30.12280273 44.66674805 C-27.9658979 41.04598693 -25.83391525 37.41152718 -23.71020508 33.77124023 C-23.33824509 33.1340657 -22.9662851 32.49689117 -22.58305359 31.84040833 C-21.10658388 29.31050876 -19.63050504 26.78038857 -18.15744019 24.24850464 C-4.26645342 0.38346751 -4.26645342 0.38346751 0 0 Z " fill="#325E8C" transform="translate(219.104736328125,-0.279052734375)"/>
<path d="M0 0 C9.17612526 1.9044004 18.26107016 4.01548788 27.3359375 6.35546875 C29.80588478 6.98413585 32.27594004 7.61237884 34.74609375 8.24023438 C38.57845144 9.21693107 42.40998549 10.1965149 46.23974609 11.18334961 C49.97800551 12.14516715 53.7191499 13.09498403 57.4609375 14.04296875 C58.6006601 14.3397905 59.74038269 14.63661224 60.91464233 14.94242859 C72.9180049 17.96296926 81.56256301 16.3753861 93.33203125 13.28125 C94.81532477 12.89916412 96.29886513 12.51803535 97.78263855 12.13781738 C101.66828574 11.13990368 105.55103498 10.13117266 109.43310547 9.1194458 C115.66277915 7.49762767 121.89647716 5.89138988 128.13068199 4.28709412 C130.30481219 3.72577741 132.47752391 3.15921433 134.65010071 2.59191895 C135.97869491 2.24799556 137.30732168 1.90419799 138.63598633 1.56054688 C139.79544266 1.2585437 140.95489899 0.95654053 142.14949036 0.64538574 C145 0 145 0 148 0 C148.96710293 13.29766525 144.77492768 26.67912518 138 38 C137.66258789 38.57427734 137.32517578 39.14855469 136.97753906 39.74023438 C125.39717628 59.18202096 109.67661927 73.53950279 87.55078125 79.6796875 C69.88129025 83.83386735 53.25563236 78.98387239 38 70 C34.84189234 67.82822215 31.91184708 65.48808555 29 63 C27.989375 62.236875 26.97875 61.47375 25.9375 60.6875 C19.62381881 54.91115338 13.90280558 47.65550325 10 40 C10 39.34 10 38.68 10 38 C9.34 38 8.68 38 8 38 C2.87355192 25.15163799 -0.40111486 13.99273769 0 0 Z " fill="#F5CDB1" transform="translate(182,121)"/>
<path d="M0 0 C1.90724098 -0.01429802 1.90724098 -0.01429802 3.85301208 -0.02888489 C5.2471418 -0.02862347 6.64127153 -0.02768645 8.03540039 -0.02612305 C9.46025213 -0.03000867 10.88510271 -0.03434306 12.30995178 -0.03910828 C15.29846956 -0.04657634 18.28686923 -0.04627514 21.27539062 -0.04101562 C25.10681339 -0.03522168 28.93775262 -0.05214677 32.76909542 -0.0753603 C35.71247692 -0.09008684 38.65574171 -0.09097082 41.59915352 -0.08785057 C43.01176473 -0.08836438 44.42438237 -0.0936134 45.83695793 -0.10366249 C47.81184077 -0.1159865 49.78682104 -0.10730695 51.76171875 -0.09765625 C52.88597763 -0.09828568 54.01023651 -0.0989151 55.16856384 -0.0995636 C57.94555664 0.2746582 57.94555664 0.2746582 59.80679321 1.55586243 C61.86100344 4.6563904 61.39191751 8.3916347 61.37915039 11.9934082 C61.38439224 12.84769409 61.38963409 13.70197998 61.39503479 14.58215332 C61.40145602 16.38768426 61.40011666 18.19325702 61.39160156 19.9987793 C61.38308738 22.76467138 61.41185643 25.52850129 61.44360352 28.29418945 C61.44521549 30.04809508 61.44463807 31.80200438 61.44165039 33.5559082 C61.45288437 34.38409058 61.46411835 35.21227295 61.47569275 36.06555176 C61.40596025 41.79596864 61.40596025 41.79596864 59.29432678 43.99147034 C56.31355551 45.61993515 54.25557619 45.66174879 50.86352539 45.67871094 C49.63545166 45.69139511 48.40737793 45.70407928 47.14208984 45.71714783 C45.80574373 45.71509645 44.46939877 45.71210849 43.13305664 45.70825195 C41.75829816 45.71281451 40.38354195 45.71812031 39.00878906 45.72413635 C36.13052084 45.73306256 33.25253017 45.73064972 30.37426758 45.72070312 C26.68855814 45.70920627 23.00380576 45.72943677 19.31822205 45.75862026 C16.48028496 45.77697825 13.64257751 45.77669086 10.80459595 45.77098274 C9.44583797 45.77082951 8.08706445 45.77687519 6.72836304 45.78927422 C4.8281582 45.80417381 2.9277957 45.7908824 1.02758789 45.77636719 C-0.59312622 45.77611794 -0.59312622 45.77611794 -2.24658203 45.77586365 C-5.72788559 45.15444824 -6.90870549 44.03266144 -9.05444336 41.2746582 C-9.52441406 38.85546875 -9.52441406 38.85546875 -9.48022461 36.16137695 C-9.47265137 35.16702637 -9.46507812 34.17267578 -9.45727539 33.14819336 C-9.42746582 32.09680176 -9.39765625 31.04541016 -9.36694336 29.9621582 C-9.35002441 28.8901416 -9.33310547 27.818125 -9.31567383 26.71362305 C-9.25556763 23.5658565 -9.16276441 20.42110236 -9.05444336 17.2746582 C-9.02688965 16.43016113 -8.99933594 15.58566406 -8.97094727 14.71557617 C-8.42906239 0.0345681 -8.42906239 0.0345681 0 0 Z " fill="#363C3D" transform="translate(343.054443359375,441.725341796875)"/>
<path d="M0 0 C1.25139771 -0.00622879 2.50279541 -0.01245758 3.79211426 -0.01887512 C5.15893959 -0.01018702 6.52576105 -0.00086903 7.89257812 0.0090332 C9.2935791 0.00955188 10.6945808 0.00903388 12.09558105 0.00752258 C15.03111645 0.00761228 17.96637708 0.01803646 20.90185547 0.03613281 C24.66479778 0.05882014 28.42733862 0.05936392 32.19033051 0.05261517 C35.08310515 0.04927377 37.97578825 0.05590844 40.86854553 0.0657444 C42.25602235 0.06959377 43.64350935 0.0707457 45.0309906 0.06915855 C46.96990238 0.06878774 48.90880068 0.08288781 50.84765625 0.09765625 C52.50287292 0.10456734 52.50287292 0.10456734 54.19152832 0.11161804 C56.92382812 0.37231445 56.92382812 0.37231445 59.92382812 2.37231445 C60.7069278 6.78995308 60.73052117 11.282303 60.85205078 15.76245117 C60.90295569 17.61338139 60.96640784 19.46398576 61.03857422 21.31420898 C61.15464665 24.41682016 61.23156736 27.51829121 61.29882812 30.62231445 C61.33709717 31.62222412 61.37536621 32.62213379 61.41479492 33.65234375 C61.42551025 34.59634033 61.43622559 35.54033691 61.44726562 36.51293945 C61.47699463 37.77412598 61.47699463 37.77412598 61.50732422 39.06079102 C60.64172901 42.48985186 58.82466542 43.44840609 55.92382812 45.37231445 C53.03367615 45.8735199 53.03367615 45.8735199 49.82006836 45.87402344 C48.00810219 45.88809486 48.00810219 45.88809486 46.15953064 45.90245056 C44.86358475 45.89121658 43.56763885 45.8799826 42.23242188 45.8684082 C40.88151471 45.86856329 39.5306071 45.87005386 38.17970276 45.87281799 C35.35438261 45.87419968 32.52957155 45.86168212 29.7043457 45.83886719 C26.08714682 45.81045507 22.47079152 45.81322989 18.85352993 45.8259573 C16.06619589 45.83291888 13.27905613 45.82512037 10.4917469 45.81270027 C8.51090215 45.80600447 6.53003008 45.81032396 4.54917908 45.81480408 C3.34435379 45.8021199 2.1395285 45.78943573 0.89819336 45.77636719 C-0.16150162 45.7709642 -1.22119659 45.76556122 -2.31300354 45.75999451 C-5.47551333 45.31628576 -6.86502381 44.66195241 -9.07617188 42.37231445 C-9.46858212 39.34302192 -9.6133496 36.68232449 -9.57226562 33.65356445 C-9.57372086 32.79927856 -9.57517609 31.94499268 -9.57667542 31.06481934 C-9.57501595 29.25924264 -9.56344931 27.45365187 -9.54272461 25.64819336 C-9.51377792 22.88244626 -9.52211219 20.11861646 -9.53515625 17.3527832 C-9.52891858 15.59886762 -9.52052742 13.84495811 -9.50976562 12.09106445 C-9.51270126 11.26288208 -9.5156369 10.43469971 -9.5186615 9.5814209 C-9.42511342 3.89589643 -9.42511342 3.89589643 -7.93067932 1.65351868 C-5.25772465 -0.19311765 -3.23132682 -0.00184315 0 0 Z " fill="#363C3D" transform="translate(117.076171875,441.627685546875)"/>
<path d="M0 0 C11.14288951 6.28732872 17.95818409 14.87455228 22 27 C22.08358958 29.21089945 22.10731764 31.42426078 22.09765625 33.63671875 C22.09282227 35.58481445 22.09282227 35.58481445 22.08789062 37.57226562 C22.07953531 38.94401108 22.07107037 40.31575587 22.0625 41.6875 C22.05748335 43.07096195 22.05292073 44.45442563 22.04882812 45.83789062 C22.03702529 49.22530395 22.02056019 52.61263033 22 56 C18.04 56 14.08 56 10 56 C9.98582031 54.16695313 9.97164063 52.33390625 9.95703125 50.4453125 C9.9101057 48.00518394 9.86185848 45.56508056 9.8125 43.125 C9.80669922 41.92101562 9.80089844 40.71703125 9.79492188 39.4765625 C9.58393414 30.84950825 8.27673009 23.59125617 2.22729492 17.09692383 C-7.21396336 8.39501617 -17.81050648 8.45541692 -29.92285156 8.86816406 C-38.23998412 9.39604977 -45.08722489 13.56088712 -50.5390625 19.74609375 C-53.99879732 24.61197811 -54.82133597 29.39111428 -55.4453125 35.265625 C-56.06241993 38.30770386 -56.80913296 39.81426379 -59 42 C-62.5625 42.375 -62.5625 42.375 -66 42 C-68.70476889 39.29523111 -68.33044845 37.77797113 -68.375 34 C-68.17638794 23.39177951 -64.20215564 15.67279155 -57 8 C-51.02757136 2.28724217 -44.84897683 -0.60670542 -37 -3 C-25.98224086 -6.67258638 -10.28208496 -4.88255431 0 0 Z " fill="#808688" transform="translate(279,276)"/>
<path d="M0 0 C4.4794585 3.80075267 6.70455208 5.9640124 7.265625 11.8984375 C7.3721153 16.95672694 6.97899355 20.42554404 4.0625 24.75 C3.21429688 25.33136719 2.36609375 25.91273438 1.4921875 26.51171875 C-1.21369257 28.56739542 -1.21369257 28.56739542 -1.57421875 31.84375 C-1.59097656 32.9678125 -1.60773438 34.091875 -1.625 35.25 C-1.79018943 42.83132544 -1.79018943 42.83132544 -3.9375 45.75 C-7.5625 46.5 -7.5625 46.5 -10.9375 46.75 C-13.74875147 42.77419317 -14.23308483 40.07646318 -14.25 35.25 C-14.3547414 30.80596621 -14.3547414 30.80596621 -16.2578125 26.96875 C-17.76978518 25.82929233 -19.35233107 24.78521236 -20.9375 23.75 C-23.5770397 18.58568319 -23.61229525 13.42327861 -22.9375 7.75 C-18.47512822 -1.50528963 -9.34280282 -3.97566078 0 0 Z " fill="#BAC5DB" transform="translate(263.9375,355.25)"/>
</svg>
