<?xml version="1.0" encoding="UTF-8"?>
<svg xmlns="http://www.w3.org/2000/svg" xmlns:xlink="http://www.w3.org/1999/xlink" width="13px" height="13px" viewBox="0 0 13 13" version="1.1">
<g id="surface1">
<path style=" stroke:none;fill-rule:nonzero;fill:rgb(73.333333%,77.647059%,86.27451%);fill-opacity:1;" d="M 5.566406 -0.0078125 C 5.675781 0 5.753906 0.0351562 5.847656 0.0898438 C 5.875 0.101562 5.875 0.101562 5.898438 0.113281 C 5.953125 0.144531 6.007812 0.171875 6.058594 0.203125 C 6.113281 0.230469 6.167969 0.257812 6.222656 0.289062 C 6.253906 0.304688 6.289062 0.324219 6.320312 0.339844 C 6.429688 0.402344 6.429688 0.402344 6.550781 0.429688 C 6.621094 0.402344 6.621094 0.402344 6.695312 0.359375 C 6.722656 0.34375 6.75 0.328125 6.777344 0.3125 C 6.808594 0.292969 6.835938 0.277344 6.867188 0.261719 C 6.910156 0.234375 6.910156 0.234375 6.953125 0.210938 C 7.105469 0.125 7.105469 0.125 7.253906 0.0351562 C 7.339844 -0.015625 7.390625 -0.0195312 7.488281 0 C 7.632812 0.140625 7.726562 0.339844 7.824219 0.511719 C 7.855469 0.5625 7.882812 0.609375 7.910156 0.660156 C 7.949219 0.726562 7.988281 0.789062 8.023438 0.855469 C 8.097656 0.980469 8.171875 1.105469 8.25 1.230469 C 8.285156 1.289062 8.320312 1.351562 8.351562 1.417969 C 8.445312 1.605469 8.53125 1.734375 8.734375 1.8125 C 8.84375 1.851562 8.957031 1.882812 9.070312 1.910156 C 9.140625 1.929688 9.210938 1.949219 9.277344 1.96875 C 9.320312 1.980469 9.363281 1.992188 9.40625 2.003906 C 9.554688 2.046875 9.660156 2.097656 9.773438 2.203125 C 9.816406 2.289062 9.8125 2.34375 9.800781 2.4375 C 9.699219 2.664062 9.449219 2.777344 9.230469 2.863281 C 8.96875 2.960938 8.660156 3.070312 8.378906 3.070312 C 8.382812 3.101562 8.382812 3.128906 8.386719 3.160156 C 8.386719 3.457031 8.285156 3.75 8.148438 4.011719 C 8.167969 4.011719 8.183594 4.011719 8.199219 4.007812 C 8.59375 3.992188 8.835938 4.035156 9.136719 4.292969 C 9.238281 4.382812 9.351562 4.464844 9.460938 4.546875 C 9.503906 4.582031 9.550781 4.617188 9.597656 4.652344 C 9.617188 4.667969 9.640625 4.683594 9.664062 4.699219 C 9.703125 4.730469 9.742188 4.761719 9.78125 4.789062 C 9.992188 4.953125 10.195312 5.058594 10.449219 5.140625 C 11.03125 5.328125 11.609375 5.683594 11.914062 6.226562 C 12.019531 6.4375 12.050781 6.652344 12.082031 6.878906 C 12.085938 6.921875 12.09375 6.964844 12.097656 7.003906 C 12.113281 7.089844 12.125 7.179688 12.136719 7.265625 C 12.152344 7.375 12.167969 7.484375 12.183594 7.59375 C 12.351562 8.769531 12.351562 8.769531 12.347656 9.285156 C 12.347656 9.316406 12.347656 9.347656 12.347656 9.378906 C 12.339844 9.964844 12.222656 10.550781 11.808594 10.996094 C 11.582031 11.203125 11.320312 11.34375 11.03125 11.4375 C 10.933594 11.480469 10.917969 11.511719 10.867188 11.601562 C 10.890625 11.605469 10.914062 11.605469 10.9375 11.605469 C 10.964844 11.605469 10.996094 11.609375 11.027344 11.609375 C 11.054688 11.609375 11.085938 11.613281 11.113281 11.613281 C 11.214844 11.632812 11.238281 11.644531 11.296875 11.730469 C 11.3125 11.816406 11.3125 11.902344 11.3125 11.992188 C 11.3125 12.019531 11.3125 12.042969 11.3125 12.070312 C 11.3125 12.125 11.3125 12.175781 11.3125 12.230469 C 11.308594 12.3125 11.308594 12.398438 11.308594 12.480469 C 11.308594 12.53125 11.308594 12.585938 11.308594 12.636719 C 11.308594 12.660156 11.308594 12.6875 11.308594 12.710938 C 11.308594 12.734375 11.308594 12.757812 11.308594 12.78125 C 11.308594 12.800781 11.308594 12.820312 11.308594 12.84375 C 11.296875 12.914062 11.273438 12.945312 11.222656 13 C 11.152344 13.011719 11.152344 13.011719 11.066406 13.011719 C 11.03125 13.011719 11 13.011719 10.964844 13.011719 C 10.929688 13.011719 10.890625 13.011719 10.855469 13.011719 C 10.816406 13.011719 10.777344 13.011719 10.738281 13.011719 C 10.632812 13.015625 10.523438 13.011719 10.417969 13.011719 C 10.300781 13.011719 10.183594 13.011719 10.070312 13.015625 C 9.84375 13.015625 9.617188 13.015625 9.390625 13.015625 C 9.203125 13.011719 9.019531 13.011719 8.835938 13.011719 C 8.808594 13.011719 8.785156 13.011719 8.757812 13.011719 C 8.703125 13.011719 8.652344 13.015625 8.597656 13.015625 C 8.097656 13.015625 7.597656 13.015625 7.101562 13.011719 C 6.671875 13.011719 6.242188 13.011719 5.8125 13.011719 C 5.316406 13.015625 4.820312 13.015625 4.324219 13.015625 C 4.269531 13.011719 4.214844 13.011719 4.164062 13.011719 C 4.136719 13.011719 4.113281 13.011719 4.085938 13.011719 C 3.902344 13.011719 3.714844 13.011719 3.53125 13.015625 C 3.308594 13.015625 3.082031 13.015625 2.859375 13.011719 C 2.746094 13.011719 2.628906 13.011719 2.515625 13.011719 C 2.410156 13.015625 2.308594 13.011719 2.203125 13.011719 C 2.164062 13.011719 2.125 13.011719 2.089844 13.011719 C 2.035156 13.011719 1.984375 13.011719 1.933594 13.011719 C 1.90625 13.011719 1.875 13.011719 1.847656 13.011719 C 1.777344 13 1.777344 13 1.730469 12.953125 C 1.695312 12.890625 1.691406 12.851562 1.691406 12.78125 C 1.691406 12.746094 1.691406 12.746094 1.691406 12.710938 C 1.691406 12.6875 1.691406 12.660156 1.691406 12.636719 C 1.691406 12.609375 1.691406 12.585938 1.691406 12.558594 C 1.691406 12.503906 1.691406 12.453125 1.691406 12.398438 C 1.691406 12.316406 1.6875 12.230469 1.6875 12.148438 C 1.6875 12.097656 1.6875 12.042969 1.6875 11.992188 C 1.6875 11.957031 1.6875 11.957031 1.6875 11.917969 C 1.691406 11.746094 1.691406 11.746094 1.746094 11.664062 C 1.824219 11.617188 1.882812 11.613281 1.972656 11.609375 C 2.003906 11.609375 2.035156 11.605469 2.0625 11.605469 C 2.085938 11.605469 2.109375 11.605469 2.132812 11.601562 C 2.105469 11.535156 2.078125 11.488281 2.011719 11.453125 C 1.957031 11.433594 1.902344 11.414062 1.84375 11.394531 C 1.40625 11.238281 1.109375 10.972656 0.886719 10.5625 C 0.378906 9.46875 0.746094 8.054688 0.917969 6.921875 C 0.925781 6.882812 0.925781 6.882812 0.929688 6.84375 C 1.011719 6.304688 1.191406 5.957031 1.625 5.609375 C 1.730469 5.535156 1.839844 5.472656 1.953125 5.40625 C 1.96875 5.398438 1.984375 5.390625 2 5.382812 C 2.179688 5.285156 2.351562 5.207031 2.546875 5.144531 C 2.839844 5.054688 3.050781 4.914062 3.289062 4.722656 C 3.355469 4.667969 3.421875 4.617188 3.488281 4.566406 C 3.511719 4.550781 3.535156 4.53125 3.558594 4.511719 C 3.605469 4.480469 3.652344 4.445312 3.699219 4.410156 C 3.835938 4.304688 3.835938 4.304688 3.964844 4.1875 C 4.140625 4.023438 4.292969 4.019531 4.527344 4.023438 C 4.625 4.027344 4.726562 4.03125 4.824219 4.035156 C 4.8125 4.011719 4.804688 3.984375 4.792969 3.957031 C 4.675781 3.660156 4.609375 3.394531 4.621094 3.070312 C 4.59375 3.070312 4.566406 3.066406 4.535156 3.0625 C 4.125 3.011719 3.527344 2.875 3.25 2.539062 C 3.195312 2.441406 3.1875 2.371094 3.199219 2.257812 C 3.285156 2.136719 3.347656 2.085938 3.492188 2.035156 C 3.507812 2.03125 3.527344 2.023438 3.542969 2.015625 C 3.664062 1.972656 3.785156 1.941406 3.910156 1.90625 C 4.273438 1.828125 4.273438 1.828125 4.554688 1.605469 C 4.589844 1.539062 4.617188 1.472656 4.644531 1.40625 C 4.699219 1.285156 4.769531 1.171875 4.839844 1.058594 C 4.867188 1.007812 4.898438 0.957031 4.929688 0.902344 C 5.027344 0.738281 5.125 0.570312 5.222656 0.40625 C 5.242188 0.375 5.257812 0.34375 5.277344 0.3125 C 5.300781 0.269531 5.328125 0.226562 5.351562 0.183594 C 5.367188 0.160156 5.382812 0.136719 5.394531 0.109375 C 5.464844 0.00390625 5.464844 0.00390625 5.566406 -0.0078125 Z M 5.566406 -0.0078125 "/>
<path style=" stroke:none;fill-rule:nonzero;fill:rgb(20%,37.254902%,54.901961%);fill-opacity:1;" d="M 5.566406 -0.0078125 C 5.675781 0 5.753906 0.0351562 5.847656 0.0898438 C 5.875 0.101562 5.875 0.101562 5.898438 0.113281 C 5.953125 0.144531 6.007812 0.171875 6.058594 0.203125 C 6.113281 0.230469 6.167969 0.257812 6.222656 0.289062 C 6.253906 0.304688 6.289062 0.324219 6.320312 0.339844 C 6.429688 0.402344 6.429688 0.402344 6.550781 0.429688 C 6.621094 0.402344 6.621094 0.402344 6.695312 0.359375 C 6.722656 0.34375 6.75 0.328125 6.777344 0.3125 C 6.808594 0.292969 6.835938 0.277344 6.867188 0.261719 C 6.910156 0.234375 6.910156 0.234375 6.953125 0.210938 C 7.105469 0.125 7.105469 0.125 7.253906 0.0351562 C 7.339844 -0.015625 7.390625 -0.0195312 7.488281 0 C 7.632812 0.140625 7.726562 0.339844 7.824219 0.511719 C 7.855469 0.5625 7.882812 0.609375 7.910156 0.660156 C 7.949219 0.726562 7.988281 0.789062 8.023438 0.855469 C 8.097656 0.980469 8.171875 1.105469 8.25 1.230469 C 8.285156 1.289062 8.320312 1.351562 8.351562 1.417969 C 8.445312 1.605469 8.53125 1.734375 8.734375 1.8125 C 8.84375 1.851562 8.957031 1.882812 9.070312 1.910156 C 9.140625 1.929688 9.210938 1.949219 9.277344 1.96875 C 9.320312 1.980469 9.363281 1.992188 9.40625 2.003906 C 9.554688 2.046875 9.660156 2.097656 9.773438 2.203125 C 9.816406 2.289062 9.8125 2.34375 9.800781 2.4375 C 9.699219 2.664062 9.449219 2.777344 9.230469 2.863281 C 8.96875 2.960938 8.660156 3.070312 8.378906 3.070312 C 8.382812 3.101562 8.382812 3.128906 8.386719 3.160156 C 8.386719 3.457031 8.285156 3.75 8.148438 4.011719 C 8.167969 4.011719 8.183594 4.011719 8.199219 4.007812 C 8.59375 3.992188 8.835938 4.035156 9.136719 4.292969 C 9.238281 4.382812 9.351562 4.464844 9.460938 4.546875 C 9.503906 4.582031 9.550781 4.617188 9.597656 4.652344 C 9.617188 4.667969 9.640625 4.683594 9.664062 4.699219 C 9.703125 4.730469 9.742188 4.761719 9.78125 4.789062 C 9.992188 4.953125 10.195312 5.058594 10.449219 5.140625 C 11.03125 5.328125 11.609375 5.683594 11.914062 6.226562 C 12.019531 6.4375 12.050781 6.652344 12.082031 6.878906 C 12.085938 6.921875 12.09375 6.964844 12.097656 7.003906 C 12.113281 7.089844 12.125 7.179688 12.136719 7.265625 C 12.152344 7.375 12.167969 7.484375 12.183594 7.59375 C 12.351562 8.769531 12.351562 8.769531 12.347656 9.285156 C 12.347656 9.316406 12.347656 9.347656 12.347656 9.378906 C 12.339844 9.964844 12.222656 10.550781 11.808594 10.996094 C 11.554688 11.226562 11.257812 11.390625 10.917969 11.449219 C 10.921875 11.4375 10.925781 11.425781 10.929688 11.414062 C 10.949219 11.328125 10.949219 11.246094 10.949219 11.160156 C 10.949219 11.140625 10.949219 11.121094 10.949219 11.101562 C 10.949219 11.035156 10.949219 10.972656 10.949219 10.90625 C 10.949219 10.859375 10.949219 10.816406 10.949219 10.769531 C 10.949219 10.617188 10.949219 10.464844 10.953125 10.3125 C 10.953125 10.273438 10.953125 10.273438 10.953125 10.234375 C 10.953125 9.988281 10.953125 9.746094 10.953125 9.5 C 10.953125 9.1875 10.953125 8.875 10.957031 8.5625 C 10.957031 8.34375 10.957031 8.125 10.957031 7.902344 C 10.957031 7.773438 10.960938 7.640625 10.960938 7.511719 C 10.960938 7.386719 10.960938 7.261719 10.960938 7.140625 C 10.960938 7.09375 10.960938 7.050781 10.960938 7.003906 C 10.964844 6.710938 10.945312 6.46875 10.738281 6.238281 C 10.542969 6.046875 10.328125 6.03125 10.066406 6.03125 C 10.035156 6.03125 10.003906 6.03125 9.96875 6.03125 C 9.882812 6.03125 9.792969 6.03125 9.707031 6.03125 C 9.609375 6.03125 9.515625 6.03125 9.421875 6.03125 C 9.234375 6.03125 9.050781 6.03125 8.863281 6.03125 C 8.710938 6.03125 8.5625 6.03125 8.410156 6.03125 C 8.367188 6.03125 8.324219 6.03125 8.277344 6.03125 C 8.246094 6.03125 8.246094 6.03125 8.214844 6.03125 C 7.804688 6.03125 7.394531 6.03125 6.984375 6.03125 C 6.609375 6.03125 6.234375 6.03125 5.859375 6.027344 C 5.472656 6.027344 5.085938 6.027344 4.703125 6.027344 C 4.488281 6.027344 4.269531 6.027344 4.054688 6.027344 C 3.871094 6.027344 3.6875 6.027344 3.503906 6.027344 C 3.40625 6.027344 3.3125 6.027344 3.21875 6.027344 C 3.117188 6.027344 3.015625 6.027344 2.914062 6.027344 C 2.886719 6.027344 2.855469 6.027344 2.824219 6.027344 C 2.605469 6.027344 2.441406 6.082031 2.269531 6.226562 C 2.253906 6.242188 2.238281 6.261719 2.222656 6.28125 C 2.199219 6.304688 2.199219 6.304688 2.175781 6.332031 C 2.074219 6.484375 2.046875 6.628906 2.046875 6.808594 C 2.046875 6.839844 2.046875 6.839844 2.046875 6.871094 C 2.046875 6.9375 2.046875 7.003906 2.046875 7.070312 C 2.046875 7.117188 2.046875 7.164062 2.046875 7.214844 C 2.046875 7.34375 2.046875 7.472656 2.050781 7.601562 C 2.050781 7.738281 2.050781 7.871094 2.050781 8.007812 C 2.050781 8.265625 2.050781 8.519531 2.050781 8.777344 C 2.050781 9.066406 2.050781 9.359375 2.054688 9.652344 C 2.054688 10.25 2.054688 10.851562 2.054688 11.449219 C 2.011719 11.4375 1.96875 11.425781 1.921875 11.414062 C 1.898438 11.410156 1.871094 11.402344 1.847656 11.394531 C 1.484375 11.292969 1.144531 11.023438 0.960938 10.699219 C 0.355469 9.570312 0.738281 8.113281 0.917969 6.921875 C 0.925781 6.882812 0.925781 6.882812 0.929688 6.84375 C 1.011719 6.304688 1.191406 5.957031 1.625 5.609375 C 1.730469 5.535156 1.839844 5.472656 1.953125 5.40625 C 1.96875 5.398438 1.984375 5.390625 2 5.382812 C 2.179688 5.285156 2.351562 5.207031 2.546875 5.144531 C 2.839844 5.054688 3.050781 4.914062 3.289062 4.722656 C 3.355469 4.667969 3.421875 4.617188 3.488281 4.566406 C 3.511719 4.550781 3.535156 4.53125 3.558594 4.511719 C 3.605469 4.480469 3.652344 4.445312 3.699219 4.410156 C 3.835938 4.304688 3.835938 4.304688 3.964844 4.1875 C 4.140625 4.023438 4.292969 4.019531 4.527344 4.023438 C 4.625 4.027344 4.726562 4.03125 4.824219 4.035156 C 4.8125 4.011719 4.804688 3.984375 4.792969 3.957031 C 4.675781 3.660156 4.609375 3.394531 4.621094 3.070312 C 4.59375 3.070312 4.566406 3.066406 4.535156 3.0625 C 4.125 3.011719 3.527344 2.875 3.25 2.539062 C 3.195312 2.441406 3.1875 2.371094 3.199219 2.257812 C 3.285156 2.136719 3.347656 2.085938 3.492188 2.035156 C 3.507812 2.03125 3.527344 2.023438 3.542969 2.015625 C 3.664062 1.972656 3.785156 1.941406 3.910156 1.90625 C 4.273438 1.828125 4.273438 1.828125 4.554688 1.605469 C 4.589844 1.539062 4.617188 1.472656 4.644531 1.40625 C 4.699219 1.285156 4.769531 1.171875 4.839844 1.058594 C 4.867188 1.007812 4.898438 0.957031 4.929688 0.902344 C 5.027344 0.738281 5.125 0.570312 5.222656 0.40625 C 5.242188 0.375 5.257812 0.34375 5.277344 0.3125 C 5.300781 0.269531 5.328125 0.226562 5.351562 0.183594 C 5.367188 0.160156 5.382812 0.136719 5.394531 0.109375 C 5.464844 0.00390625 5.464844 0.00390625 5.566406 -0.0078125 Z M 5.566406 -0.0078125 "/>
<path style=" stroke:none;fill-rule:nonzero;fill:rgb(29.019608%,32.156863%,32.941176%);fill-opacity:1;" d="M 2.972656 11.210938 C 3.019531 11.210938 3.019531 11.210938 3.066406 11.210938 C 3.101562 11.210938 3.136719 11.210938 3.171875 11.210938 C 3.207031 11.210938 3.242188 11.210938 3.277344 11.210938 C 3.351562 11.210938 3.425781 11.210938 3.503906 11.210938 C 3.597656 11.210938 3.691406 11.210938 3.789062 11.210938 C 3.859375 11.210938 3.933594 11.210938 4.007812 11.210938 C 4.042969 11.210938 4.078125 11.210938 4.113281 11.210938 C 4.164062 11.210938 4.210938 11.210938 4.261719 11.210938 C 4.289062 11.210938 4.316406 11.210938 4.34375 11.210938 C 4.417969 11.222656 4.417969 11.222656 4.519531 11.324219 C 4.519531 11.425781 4.519531 11.523438 4.519531 11.628906 C 5.828125 11.628906 7.132812 11.628906 8.480469 11.628906 C 8.480469 11.527344 8.480469 11.429688 8.480469 11.324219 C 8.558594 11.222656 8.558594 11.222656 8.628906 11.210938 C 8.65625 11.210938 8.683594 11.210938 8.714844 11.210938 C 8.746094 11.210938 8.777344 11.210938 8.8125 11.210938 C 8.847656 11.210938 8.882812 11.210938 8.917969 11.210938 C 8.953125 11.210938 8.988281 11.210938 9.023438 11.210938 C 9.101562 11.210938 9.175781 11.210938 9.253906 11.210938 C 9.347656 11.210938 9.445312 11.210938 9.542969 11.210938 C 9.617188 11.210938 9.691406 11.210938 9.769531 11.210938 C 9.804688 11.210938 9.839844 11.210938 9.875 11.210938 C 9.925781 11.210938 9.976562 11.210938 10.023438 11.210938 C 10.054688 11.210938 10.082031 11.210938 10.109375 11.210938 C 10.183594 11.222656 10.183594 11.222656 10.230469 11.257812 C 10.277344 11.328125 10.265625 11.398438 10.261719 11.480469 C 10.261719 11.511719 10.261719 11.546875 10.261719 11.578125 C 10.257812 11.617188 10.257812 11.617188 10.257812 11.652344 C 10.28125 11.652344 10.28125 11.652344 10.304688 11.652344 C 10.449219 11.644531 10.597656 11.636719 10.742188 11.632812 C 10.789062 11.628906 10.832031 11.628906 10.878906 11.625 C 10.929688 11.625 10.984375 11.621094 11.035156 11.621094 C 11.078125 11.621094 11.078125 11.621094 11.125 11.617188 C 11.199219 11.628906 11.199219 11.628906 11.25 11.664062 C 11.324219 11.765625 11.3125 11.867188 11.3125 11.992188 C 11.3125 12.019531 11.3125 12.042969 11.3125 12.070312 C 11.3125 12.125 11.3125 12.175781 11.3125 12.230469 C 11.308594 12.3125 11.308594 12.398438 11.308594 12.480469 C 11.308594 12.53125 11.308594 12.585938 11.308594 12.636719 C 11.308594 12.660156 11.308594 12.6875 11.308594 12.710938 C 11.308594 12.734375 11.308594 12.757812 11.308594 12.78125 C 11.308594 12.800781 11.308594 12.820312 11.308594 12.84375 C 11.296875 12.914062 11.273438 12.945312 11.222656 13 C 11.152344 13.011719 11.152344 13.011719 11.066406 13.011719 C 11.015625 13.011719 11.015625 13.011719 10.964844 13.011719 C 10.929688 13.011719 10.890625 13.011719 10.855469 13.011719 C 10.816406 13.011719 10.777344 13.011719 10.738281 13.011719 C 10.632812 13.015625 10.523438 13.011719 10.417969 13.011719 C 10.300781 13.011719 10.183594 13.011719 10.070312 13.015625 C 9.84375 13.015625 9.617188 13.015625 9.390625 13.015625 C 9.203125 13.011719 9.019531 13.011719 8.835938 13.011719 C 8.808594 13.011719 8.785156 13.011719 8.757812 13.011719 C 8.703125 13.011719 8.652344 13.015625 8.597656 13.015625 C 8.097656 13.015625 7.597656 13.015625 7.101562 13.011719 C 6.671875 13.011719 6.242188 13.011719 5.8125 13.011719 C 5.316406 13.015625 4.820312 13.015625 4.324219 13.015625 C 4.269531 13.011719 4.214844 13.011719 4.164062 13.011719 C 4.136719 13.011719 4.113281 13.011719 4.085938 13.011719 C 3.902344 13.011719 3.714844 13.011719 3.53125 13.015625 C 3.308594 13.015625 3.082031 13.015625 2.859375 13.011719 C 2.746094 13.011719 2.628906 13.011719 2.515625 13.011719 C 2.410156 13.015625 2.308594 13.011719 2.203125 13.011719 C 2.164062 13.011719 2.125 13.011719 2.089844 13.011719 C 2.035156 13.011719 1.984375 13.011719 1.933594 13.011719 C 1.90625 13.011719 1.875 13.011719 1.847656 13.011719 C 1.777344 13 1.777344 13 1.730469 12.953125 C 1.695312 12.890625 1.691406 12.851562 1.691406 12.78125 C 1.691406 12.757812 1.691406 12.734375 1.691406 12.710938 C 1.691406 12.6875 1.691406 12.660156 1.691406 12.636719 C 1.691406 12.609375 1.691406 12.585938 1.691406 12.558594 C 1.691406 12.503906 1.691406 12.453125 1.691406 12.398438 C 1.691406 12.316406 1.6875 12.230469 1.6875 12.148438 C 1.6875 12.097656 1.6875 12.042969 1.6875 11.992188 C 1.6875 11.957031 1.6875 11.957031 1.6875 11.917969 C 1.691406 11.746094 1.691406 11.746094 1.75 11.664062 C 1.824219 11.617188 1.875 11.617188 1.964844 11.621094 C 2.015625 11.621094 2.015625 11.621094 2.066406 11.625 C 2.105469 11.625 2.144531 11.628906 2.183594 11.628906 C 2.234375 11.632812 2.28125 11.632812 2.332031 11.636719 C 2.46875 11.640625 2.605469 11.648438 2.742188 11.652344 C 2.742188 11.617188 2.742188 11.617188 2.738281 11.578125 C 2.738281 11.546875 2.738281 11.515625 2.738281 11.480469 C 2.734375 11.433594 2.734375 11.433594 2.734375 11.382812 C 2.742188 11.296875 2.742188 11.296875 2.769531 11.257812 C 2.839844 11.207031 2.890625 11.210938 2.972656 11.210938 Z M 2.972656 11.210938 "/>
<path style=" stroke:none;fill-rule:nonzero;fill:rgb(18.039216%,33.72549%,49.411765%);fill-opacity:1;" d="M 5.566406 -0.0078125 C 5.675781 0 5.753906 0.0351562 5.847656 0.0898438 C 5.875 0.101562 5.875 0.101562 5.898438 0.113281 C 5.953125 0.144531 6.007812 0.171875 6.058594 0.203125 C 6.113281 0.230469 6.167969 0.257812 6.222656 0.289062 C 6.253906 0.304688 6.289062 0.324219 6.320312 0.339844 C 6.429688 0.402344 6.429688 0.402344 6.550781 0.429688 C 6.621094 0.402344 6.621094 0.402344 6.695312 0.359375 C 6.722656 0.34375 6.75 0.328125 6.777344 0.3125 C 6.808594 0.292969 6.835938 0.277344 6.867188 0.261719 C 6.910156 0.234375 6.910156 0.234375 6.953125 0.210938 C 7.105469 0.125 7.105469 0.125 7.253906 0.0351562 C 7.339844 -0.015625 7.390625 -0.0195312 7.488281 0 C 7.632812 0.140625 7.726562 0.339844 7.824219 0.511719 C 7.855469 0.5625 7.882812 0.609375 7.910156 0.660156 C 7.949219 0.726562 7.988281 0.789062 8.023438 0.855469 C 8.097656 0.980469 8.171875 1.105469 8.25 1.230469 C 8.285156 1.289062 8.320312 1.351562 8.351562 1.417969 C 8.445312 1.605469 8.53125 1.734375 8.734375 1.8125 C 8.84375 1.851562 8.957031 1.882812 9.070312 1.910156 C 9.140625 1.929688 9.210938 1.949219 9.277344 1.96875 C 9.320312 1.980469 9.363281 1.992188 9.40625 2.003906 C 9.554688 2.046875 9.660156 2.097656 9.773438 2.203125 C 9.816406 2.289062 9.8125 2.34375 9.800781 2.4375 C 9.699219 2.664062 9.449219 2.777344 9.226562 2.863281 C 8.929688 2.972656 8.613281 3.046875 8.304688 3.105469 C 8.113281 3.144531 7.929688 3.191406 7.742188 3.238281 C 7.691406 3.25 7.644531 3.265625 7.59375 3.277344 C 7.476562 3.308594 7.355469 3.339844 7.234375 3.371094 C 7.167969 3.386719 7.101562 3.40625 7.03125 3.421875 C 6.96875 3.441406 6.90625 3.457031 6.84375 3.472656 C 6.542969 3.550781 6.34375 3.523438 6.050781 3.445312 C 6.015625 3.4375 5.980469 3.425781 5.945312 3.417969 C 5.855469 3.394531 5.765625 3.371094 5.675781 3.347656 C 5.519531 3.308594 5.359375 3.265625 5.199219 3.222656 C 5.179688 3.21875 5.164062 3.214844 5.148438 3.210938 C 4.878906 3.140625 4.609375 3.078125 4.335938 3.023438 C 3.953125 2.941406 3.453125 2.832031 3.222656 2.488281 C 3.183594 2.410156 3.191406 2.347656 3.199219 2.257812 C 3.285156 2.136719 3.347656 2.085938 3.492188 2.035156 C 3.507812 2.03125 3.527344 2.023438 3.542969 2.015625 C 3.664062 1.972656 3.785156 1.941406 3.910156 1.90625 C 4.273438 1.828125 4.273438 1.828125 4.554688 1.605469 C 4.589844 1.539062 4.617188 1.472656 4.644531 1.40625 C 4.699219 1.285156 4.769531 1.171875 4.839844 1.058594 C 4.867188 1.007812 4.898438 0.957031 4.929688 0.902344 C 5.027344 0.738281 5.125 0.570312 5.222656 0.40625 C 5.242188 0.375 5.257812 0.34375 5.277344 0.3125 C 5.300781 0.269531 5.328125 0.226562 5.351562 0.183594 C 5.367188 0.160156 5.382812 0.136719 5.394531 0.109375 C 5.464844 0.00390625 5.464844 0.00390625 5.566406 -0.0078125 Z M 5.566406 -0.0078125 "/>
<path style=" stroke:none;fill-rule:nonzero;fill:rgb(29.019608%,32.156863%,33.333333%);fill-opacity:1;" d="M 7.085938 7.007812 C 7.367188 7.167969 7.539062 7.386719 7.640625 7.695312 C 7.644531 7.75 7.644531 7.808594 7.644531 7.867188 C 7.644531 7.882812 7.644531 7.902344 7.644531 7.917969 C 7.644531 7.972656 7.644531 8.027344 7.644531 8.078125 C 7.644531 8.117188 7.644531 8.152344 7.644531 8.1875 C 7.644531 8.277344 7.644531 8.367188 7.640625 8.453125 C 7.671875 8.457031 7.699219 8.460938 7.726562 8.464844 C 7.847656 8.484375 7.914062 8.519531 8 8.609375 C 8.109375 8.761719 8.179688 8.890625 8.179688 9.082031 C 8.179688 9.113281 8.179688 9.140625 8.183594 9.171875 C 8.183594 9.308594 8.183594 9.445312 8.183594 9.582031 C 8.183594 9.65625 8.1875 9.726562 8.1875 9.800781 C 8.1875 9.902344 8.1875 10.007812 8.1875 10.109375 C 8.191406 10.140625 8.191406 10.175781 8.191406 10.207031 C 8.191406 10.367188 8.183594 10.488281 8.09375 10.621094 C 7.941406 10.765625 7.804688 10.78125 7.601562 10.777344 C 7.574219 10.78125 7.550781 10.78125 7.523438 10.78125 C 7.433594 10.78125 7.347656 10.78125 7.261719 10.78125 C 7.199219 10.78125 7.140625 10.78125 7.078125 10.78125 C 6.953125 10.78125 6.824219 10.78125 6.695312 10.78125 C 6.535156 10.78125 6.371094 10.78125 6.210938 10.78125 C 6.082031 10.78125 5.957031 10.78125 5.832031 10.78125 C 5.773438 10.78125 5.710938 10.78125 5.652344 10.78125 C 5.570312 10.78125 5.484375 10.78125 5.402344 10.78125 C 5.375 10.78125 5.351562 10.78125 5.328125 10.78125 C 5.164062 10.78125 5.050781 10.746094 4.925781 10.640625 C 4.796875 10.480469 4.808594 10.316406 4.8125 10.117188 C 4.8125 10.085938 4.808594 10.050781 4.808594 10.019531 C 4.808594 9.949219 4.808594 9.878906 4.8125 9.808594 C 4.8125 9.71875 4.8125 9.632812 4.8125 9.542969 C 4.808594 9.457031 4.808594 9.371094 4.8125 9.285156 C 4.808594 9.253906 4.808594 9.222656 4.808594 9.191406 C 4.8125 8.957031 4.855469 8.753906 5.027344 8.582031 C 5.1875 8.46875 5.304688 8.425781 5.5 8.425781 C 5.523438 8.425781 5.542969 8.425781 5.5625 8.425781 C 5.628906 8.425781 5.691406 8.425781 5.757812 8.425781 C 5.804688 8.425781 5.847656 8.425781 5.894531 8.425781 C 6.015625 8.425781 6.132812 8.425781 6.253906 8.429688 C 6.375 8.429688 6.496094 8.429688 6.621094 8.429688 C 6.859375 8.429688 7.097656 8.429688 7.335938 8.429688 C 7.335938 8.320312 7.335938 8.210938 7.332031 8.101562 C 7.332031 8.070312 7.332031 8.042969 7.332031 8.011719 C 7.328125 7.792969 7.292969 7.605469 7.140625 7.441406 C 6.902344 7.222656 6.632812 7.222656 6.324219 7.234375 C 6.113281 7.246094 5.9375 7.351562 5.800781 7.507812 C 5.714844 7.632812 5.691406 7.753906 5.675781 7.902344 C 5.660156 7.980469 5.640625 8.019531 5.585938 8.074219 C 5.496094 8.082031 5.496094 8.082031 5.40625 8.074219 C 5.339844 8.003906 5.347656 7.96875 5.347656 7.871094 C 5.351562 7.601562 5.453125 7.40625 5.636719 7.210938 C 5.789062 7.066406 5.945312 6.992188 6.144531 6.929688 C 6.425781 6.839844 6.824219 6.882812 7.085938 7.007812 Z M 7.085938 7.007812 "/>
<path style=" stroke:none;fill-rule:nonzero;fill:rgb(19.607843%,36.862745%,54.901961%);fill-opacity:1;" d="M 5.5625 -0.0078125 C 5.675781 0 5.753906 0.0351562 5.847656 0.0898438 C 5.863281 0.0976562 5.882812 0.105469 5.898438 0.113281 C 5.953125 0.144531 6.007812 0.171875 6.058594 0.203125 C 6.113281 0.230469 6.167969 0.257812 6.222656 0.289062 C 6.253906 0.304688 6.289062 0.324219 6.320312 0.339844 C 6.429688 0.402344 6.429688 0.402344 6.550781 0.429688 C 6.621094 0.402344 6.621094 0.402344 6.695312 0.359375 C 6.722656 0.34375 6.75 0.328125 6.777344 0.3125 C 6.824219 0.285156 6.824219 0.285156 6.867188 0.261719 C 6.894531 0.242188 6.925781 0.226562 6.953125 0.210938 C 7.105469 0.125 7.105469 0.125 7.253906 0.0351562 C 7.339844 -0.015625 7.390625 -0.0195312 7.488281 0 C 7.644531 0.152344 7.746094 0.375 7.855469 0.558594 C 7.882812 0.609375 7.910156 0.660156 7.941406 0.710938 C 7.960938 0.742188 7.976562 0.773438 7.996094 0.808594 C 8.0625 0.921875 8.132812 1.039062 8.199219 1.152344 C 8.21875 1.179688 8.234375 1.207031 8.25 1.234375 C 8.289062 1.300781 8.328125 1.363281 8.367188 1.425781 C 8.378906 1.445312 8.390625 1.460938 8.402344 1.480469 C 8.421875 1.511719 8.441406 1.546875 8.464844 1.582031 C 8.488281 1.621094 8.511719 1.660156 8.53125 1.699219 C 8.523438 1.71875 8.515625 1.734375 8.503906 1.75 C 8.457031 1.761719 8.457031 1.761719 8.394531 1.765625 C 8.257812 1.773438 8.128906 1.804688 7.996094 1.835938 C 7.96875 1.84375 7.945312 1.851562 7.917969 1.855469 C 7.742188 1.902344 7.5625 1.953125 7.386719 2 C 7.339844 2.015625 7.292969 2.027344 7.25 2.039062 C 7.15625 2.066406 7.066406 2.089844 6.976562 2.117188 C 6.933594 2.128906 6.890625 2.140625 6.851562 2.152344 C 6.832031 2.160156 6.8125 2.164062 6.792969 2.171875 C 6.53125 2.242188 6.316406 2.195312 6.054688 2.125 C 6 2.109375 5.941406 2.09375 5.882812 2.078125 C 5.761719 2.046875 5.640625 2.011719 5.519531 1.980469 C 5.378906 1.941406 5.238281 1.90625 5.097656 1.867188 C 5.039062 1.851562 4.984375 1.835938 4.929688 1.820312 C 4.894531 1.8125 4.859375 1.804688 4.824219 1.792969 C 4.792969 1.785156 4.765625 1.777344 4.734375 1.769531 C 4.644531 1.75 4.558594 1.75 4.46875 1.75 C 4.507812 1.605469 4.582031 1.484375 4.660156 1.355469 C 4.691406 1.308594 4.71875 1.257812 4.75 1.207031 C 4.773438 1.167969 4.773438 1.167969 4.796875 1.128906 C 4.851562 1.035156 4.90625 0.941406 4.960938 0.851562 C 4.96875 0.835938 4.980469 0.816406 4.988281 0.800781 C 5.027344 0.738281 5.066406 0.671875 5.101562 0.609375 C 5.453125 0.00390625 5.453125 0.00390625 5.5625 -0.0078125 Z M 5.5625 -0.0078125 "/>
<path style=" stroke:none;fill-rule:nonzero;fill:rgb(96.078431%,80.392157%,69.411765%);fill-opacity:1;" d="M 4.621094 3.070312 C 4.855469 3.121094 5.085938 3.175781 5.316406 3.234375 C 5.378906 3.25 5.441406 3.265625 5.503906 3.28125 C 5.601562 3.304688 5.699219 3.332031 5.796875 3.355469 C 5.890625 3.378906 5.984375 3.40625 6.078125 3.429688 C 6.109375 3.4375 6.136719 3.445312 6.167969 3.453125 C 6.472656 3.527344 6.691406 3.488281 6.992188 3.410156 C 7.027344 3.398438 7.066406 3.390625 7.105469 3.378906 C 7.203125 3.355469 7.300781 3.328125 7.398438 3.304688 C 7.558594 3.261719 7.714844 3.222656 7.875 3.179688 C 7.929688 3.167969 7.984375 3.152344 8.039062 3.136719 C 8.074219 3.128906 8.105469 3.121094 8.140625 3.113281 C 8.171875 3.105469 8.199219 3.097656 8.230469 3.089844 C 8.304688 3.070312 8.304688 3.070312 8.378906 3.070312 C 8.402344 3.410156 8.296875 3.75 8.125 4.039062 C 8.117188 4.050781 8.109375 4.066406 8.097656 4.082031 C 7.804688 4.574219 7.40625 4.941406 6.84375 5.09375 C 6.394531 5.199219 5.972656 5.078125 5.585938 4.851562 C 5.503906 4.792969 5.429688 4.734375 5.359375 4.671875 C 5.332031 4.652344 5.304688 4.632812 5.28125 4.613281 C 5.121094 4.464844 4.972656 4.28125 4.875 4.085938 C 4.875 4.070312 4.875 4.054688 4.875 4.039062 C 4.859375 4.039062 4.839844 4.039062 4.824219 4.039062 C 4.695312 3.710938 4.609375 3.425781 4.621094 3.070312 Z M 4.621094 3.070312 "/>
<path style=" stroke:none;fill-rule:nonzero;fill:rgb(21.176471%,23.529412%,23.921569%);fill-opacity:1;" d="M 8.710938 11.214844 C 8.757812 11.214844 8.757812 11.214844 8.808594 11.214844 C 8.84375 11.214844 8.878906 11.214844 8.914062 11.214844 C 8.949219 11.214844 8.988281 11.214844 9.023438 11.214844 C 9.097656 11.214844 9.175781 11.214844 9.25 11.214844 C 9.347656 11.214844 9.445312 11.214844 9.542969 11.214844 C 9.617188 11.214844 9.691406 11.214844 9.765625 11.214844 C 9.800781 11.214844 9.839844 11.214844 9.875 11.214844 C 9.925781 11.210938 9.972656 11.214844 10.023438 11.214844 C 10.054688 11.214844 10.082031 11.214844 10.109375 11.214844 C 10.179688 11.222656 10.179688 11.222656 10.230469 11.253906 C 10.28125 11.332031 10.269531 11.429688 10.269531 11.519531 C 10.269531 11.542969 10.269531 11.5625 10.269531 11.585938 C 10.269531 11.632812 10.269531 11.675781 10.269531 11.722656 C 10.269531 11.792969 10.269531 11.863281 10.269531 11.933594 C 10.269531 11.980469 10.269531 12.023438 10.269531 12.066406 C 10.269531 12.089844 10.269531 12.109375 10.269531 12.132812 C 10.269531 12.277344 10.269531 12.277344 10.214844 12.332031 C 10.140625 12.375 10.089844 12.375 10 12.375 C 9.96875 12.375 9.941406 12.375 9.90625 12.375 C 9.875 12.375 9.839844 12.375 9.804688 12.375 C 9.769531 12.375 9.734375 12.375 9.699219 12.375 C 9.628906 12.375 9.554688 12.375 9.480469 12.375 C 9.386719 12.375 9.292969 12.375 9.199219 12.378906 C 9.128906 12.378906 9.058594 12.378906 8.984375 12.378906 C 8.949219 12.378906 8.914062 12.378906 8.882812 12.378906 C 8.832031 12.378906 8.785156 12.378906 8.738281 12.378906 C 8.695312 12.378906 8.695312 12.378906 8.652344 12.378906 C 8.566406 12.363281 8.535156 12.332031 8.480469 12.261719 C 8.46875 12.203125 8.46875 12.203125 8.46875 12.132812 C 8.46875 12.109375 8.46875 12.082031 8.46875 12.058594 C 8.472656 12.03125 8.472656 12.003906 8.472656 11.976562 C 8.472656 11.949219 8.472656 11.921875 8.472656 11.894531 C 8.476562 11.8125 8.476562 11.734375 8.480469 11.652344 C 8.480469 11.632812 8.480469 11.613281 8.484375 11.589844 C 8.496094 11.214844 8.496094 11.214844 8.710938 11.214844 Z M 8.710938 11.214844 "/>
<path style=" stroke:none;fill-rule:nonzero;fill:rgb(21.176471%,23.529412%,23.921569%);fill-opacity:1;" d="M 2.972656 11.214844 C 3.003906 11.214844 3.035156 11.210938 3.070312 11.210938 C 3.105469 11.214844 3.136719 11.214844 3.171875 11.214844 C 3.207031 11.214844 3.246094 11.214844 3.28125 11.214844 C 3.355469 11.214844 3.429688 11.214844 3.503906 11.214844 C 3.597656 11.214844 3.695312 11.214844 3.789062 11.214844 C 3.863281 11.214844 3.9375 11.214844 4.011719 11.214844 C 4.046875 11.214844 4.082031 11.214844 4.117188 11.214844 C 4.164062 11.214844 4.214844 11.214844 4.265625 11.214844 C 4.304688 11.214844 4.304688 11.214844 4.347656 11.214844 C 4.417969 11.222656 4.417969 11.222656 4.492188 11.273438 C 4.515625 11.386719 4.515625 11.5 4.519531 11.613281 C 4.519531 11.660156 4.519531 11.707031 4.523438 11.753906 C 4.527344 11.832031 4.527344 11.910156 4.527344 11.992188 C 4.53125 12.015625 4.53125 12.042969 4.53125 12.066406 C 4.53125 12.089844 4.53125 12.117188 4.53125 12.140625 C 4.535156 12.171875 4.535156 12.171875 4.535156 12.203125 C 4.511719 12.292969 4.464844 12.316406 4.390625 12.363281 C 4.320312 12.378906 4.320312 12.378906 4.238281 12.378906 C 4.191406 12.378906 4.191406 12.378906 4.144531 12.378906 C 4.113281 12.378906 4.078125 12.378906 4.046875 12.378906 C 4.011719 12.378906 3.976562 12.378906 3.941406 12.378906 C 3.871094 12.378906 3.796875 12.378906 3.726562 12.378906 C 3.636719 12.375 3.542969 12.375 3.453125 12.375 C 3.378906 12.375 3.308594 12.375 3.238281 12.375 C 3.1875 12.375 3.136719 12.375 3.089844 12.375 C 3.058594 12.375 3.027344 12.375 2.996094 12.375 C 2.96875 12.375 2.941406 12.375 2.914062 12.375 C 2.832031 12.363281 2.796875 12.347656 2.742188 12.289062 C 2.730469 12.210938 2.730469 12.144531 2.730469 12.066406 C 2.730469 12.046875 2.730469 12.023438 2.730469 12.003906 C 2.730469 11.957031 2.730469 11.910156 2.730469 11.863281 C 2.730469 11.792969 2.730469 11.722656 2.730469 11.652344 C 2.730469 11.609375 2.730469 11.566406 2.730469 11.519531 C 2.730469 11.5 2.730469 11.476562 2.730469 11.457031 C 2.734375 11.3125 2.734375 11.3125 2.769531 11.253906 C 2.839844 11.207031 2.890625 11.214844 2.972656 11.214844 Z M 2.972656 11.214844 "/>
<path style=" stroke:none;fill-rule:nonzero;fill:rgb(50.196078%,52.54902%,53.333333%);fill-opacity:1;" d="M 7.085938 7.007812 C 7.367188 7.167969 7.539062 7.386719 7.640625 7.695312 C 7.644531 7.75 7.644531 7.804688 7.644531 7.863281 C 7.644531 7.910156 7.644531 7.910156 7.644531 7.960938 C 7.644531 7.996094 7.644531 8.03125 7.644531 8.066406 C 7.644531 8.101562 7.644531 8.136719 7.644531 8.171875 C 7.644531 8.257812 7.644531 8.34375 7.640625 8.429688 C 7.542969 8.429688 7.441406 8.429688 7.335938 8.429688 C 7.335938 8.382812 7.335938 8.335938 7.335938 8.289062 C 7.335938 8.226562 7.335938 8.164062 7.332031 8.101562 C 7.332031 8.070312 7.332031 8.042969 7.332031 8.011719 C 7.328125 7.792969 7.292969 7.605469 7.140625 7.441406 C 6.902344 7.222656 6.632812 7.222656 6.324219 7.234375 C 6.113281 7.246094 5.9375 7.351562 5.800781 7.507812 C 5.714844 7.632812 5.691406 7.753906 5.675781 7.902344 C 5.660156 7.980469 5.640625 8.019531 5.585938 8.074219 C 5.496094 8.082031 5.496094 8.082031 5.40625 8.074219 C 5.339844 8.003906 5.347656 7.96875 5.347656 7.871094 C 5.351562 7.601562 5.453125 7.40625 5.636719 7.210938 C 5.789062 7.066406 5.945312 6.992188 6.144531 6.929688 C 6.425781 6.839844 6.824219 6.882812 7.085938 7.007812 Z M 7.085938 7.007812 "/>
<path style=" stroke:none;fill-rule:nonzero;fill:rgb(72.941176%,77.254902%,85.882353%);fill-opacity:1;" d="M 6.703125 9.019531 C 6.816406 9.117188 6.871094 9.171875 6.886719 9.320312 C 6.890625 9.449219 6.878906 9.539062 6.804688 9.648438 C 6.78125 9.664062 6.761719 9.679688 6.738281 9.691406 C 6.671875 9.746094 6.671875 9.746094 6.660156 9.828125 C 6.660156 9.855469 6.660156 9.886719 6.660156 9.914062 C 6.65625 10.109375 6.65625 10.109375 6.601562 10.179688 C 6.507812 10.199219 6.507812 10.199219 6.421875 10.207031 C 6.351562 10.105469 6.339844 10.039062 6.339844 9.914062 C 6.335938 9.800781 6.335938 9.800781 6.289062 9.703125 C 6.25 9.675781 6.210938 9.648438 6.171875 9.625 C 6.101562 9.492188 6.101562 9.359375 6.117188 9.21875 C 6.234375 8.980469 6.464844 8.917969 6.703125 9.019531 Z M 6.703125 9.019531 "/>
</g>
</svg>
