<?xml version="1.0" encoding="UTF-8"?>
<svg xmlns="http://www.w3.org/2000/svg" xmlns:xlink="http://www.w3.org/1999/xlink" width="13px" height="13px" viewBox="0 0 13 13" version="1.1">
<g id="surface1">
<path style=" stroke:none;fill-rule:nonzero;fill:rgb(100%,100%,100%);fill-opacity:1;" d="M 8.648438 7.484375 C 9.308594 7.484375 9.910156 7.753906 10.34375 8.1875 C 10.78125 8.621094 11.046875 9.222656 11.046875 9.886719 C 11.046875 10.371094 10.902344 10.824219 10.65625 11.199219 L 11.695312 12.332031 L 10.980469 12.988281 L 9.976562 11.886719 C 9.597656 12.136719 9.136719 12.285156 8.648438 12.285156 C 7.984375 12.285156 7.382812 12.015625 6.949219 11.582031 C 6.515625 11.148438 6.246094 10.550781 6.246094 9.886719 C 6.246094 9.222656 6.515625 8.621094 6.949219 8.1875 C 7.382812 7.753906 7.984375 7.484375 8.648438 7.484375 Z M 2.089844 6.03125 C 1.9375 6.03125 1.808594 5.894531 1.808594 5.726562 C 1.808594 5.554688 1.933594 5.421875 2.089844 5.421875 L 4.484375 5.421875 C 4.636719 5.421875 4.761719 5.558594 4.761719 5.726562 C 4.761719 5.898438 4.640625 6.03125 4.484375 6.03125 Z M 8.972656 1.859375 L 9.972656 1.859375 C 10.171875 1.859375 10.351562 1.9375 10.480469 2.070312 C 10.613281 2.199219 10.691406 2.378906 10.691406 2.574219 L 10.691406 6.488281 C 10.667969 6.710938 10.117188 6.714844 10.074219 6.488281 L 10.074219 2.574219 C 10.074219 2.546875 10.0625 2.519531 10.042969 2.5 C 10.027344 2.484375 10 2.472656 9.972656 2.472656 L 8.96875 2.472656 L 8.96875 6.488281 C 8.914062 6.691406 8.457031 6.722656 8.351562 6.488281 L 8.351562 0.714844 C 8.351562 0.6875 8.34375 0.660156 8.324219 0.644531 C 8.304688 0.625 8.28125 0.613281 8.25 0.613281 L 0.710938 0.613281 C 0.683594 0.613281 0.660156 0.625 0.640625 0.644531 C 0.621094 0.660156 0.609375 0.6875 0.609375 0.714844 L 0.609375 9.234375 C 0.609375 9.261719 0.621094 9.285156 0.640625 9.304688 C 0.660156 9.324219 0.683594 9.335938 0.710938 9.335938 L 5.207031 9.335938 C 5.515625 9.367188 5.527344 9.902344 5.207031 9.949219 L 2.332031 9.949219 L 2.332031 11.089844 C 2.332031 11.121094 2.34375 11.144531 2.359375 11.164062 C 2.378906 11.183594 2.402344 11.191406 2.433594 11.191406 L 5.207031 11.191406 C 5.429688 11.21875 5.503906 11.730469 5.207031 11.808594 L 2.4375 11.808594 C 2.238281 11.808594 2.058594 11.726562 1.929688 11.597656 C 1.800781 11.464844 1.71875 11.289062 1.71875 11.089844 L 1.71875 9.949219 L 0.714844 9.949219 C 0.519531 9.949219 0.339844 9.871094 0.210938 9.738281 C 0.0820312 9.605469 0 9.429688 0 9.234375 L 0 0.714844 C 0 0.519531 0.0820312 0.339844 0.210938 0.210938 C 0.339844 0.0820312 0.519531 0 0.714844 0 L 8.253906 0 C 8.449219 0 8.632812 0.0820312 8.761719 0.210938 C 8.890625 0.339844 8.972656 0.519531 8.972656 0.714844 Z M 2.085938 2.753906 C 1.933594 2.753906 1.808594 2.613281 1.808594 2.445312 C 1.808594 2.277344 1.929688 2.140625 2.085938 2.140625 L 6.875 2.140625 C 7.023438 2.140625 7.152344 2.28125 7.152344 2.445312 C 7.152344 2.617188 7.03125 2.753906 6.875 2.753906 Z M 2.085938 4.390625 C 1.933594 4.390625 1.808594 4.253906 1.808594 4.085938 C 1.808594 3.917969 1.929688 3.78125 2.085938 3.78125 L 6.875 3.78125 C 7.023438 3.78125 7.152344 3.921875 7.152344 4.085938 C 7.152344 4.257812 7.03125 4.390625 6.875 4.390625 Z M 9.921875 8.609375 C 9.597656 8.28125 9.144531 8.082031 8.648438 8.082031 C 8.148438 8.082031 7.699219 8.28125 7.371094 8.609375 C 7.042969 8.933594 6.839844 9.386719 6.839844 9.886719 C 6.839844 10.382812 7.042969 10.835938 7.371094 11.160156 C 7.699219 11.488281 8.148438 11.691406 8.648438 11.691406 C 9.144531 11.691406 9.597656 11.488281 9.921875 11.160156 C 10.25 10.835938 10.453125 10.382812 10.453125 9.886719 C 10.453125 9.386719 10.25 8.9375 9.921875 8.609375 Z M 9.921875 8.609375 "/>
</g>
</svg>
