<?xml version="1.0" encoding="UTF-8"?>
<svg xmlns="http://www.w3.org/2000/svg" xmlns:xlink="http://www.w3.org/1999/xlink" width="13px" height="13px" viewBox="0 0 13 13" version="1.1">
<g id="surface1">
<path style=" stroke:none;fill-rule:nonzero;fill:rgb(0%,0%,0%);fill-opacity:1;" d="M 9.742188 7.769531 C 10.441406 7.769531 11.078125 8.023438 11.539062 8.4375 C 12.003906 8.847656 12.285156 9.417969 12.285156 10.046875 C 12.285156 10.503906 12.132812 10.933594 11.871094 11.292969 L 12.972656 12.367188 L 12.214844 12.988281 L 11.148438 11.941406 C 10.746094 12.183594 10.261719 12.324219 9.742188 12.324219 C 9.039062 12.324219 8.402344 12.066406 7.941406 11.65625 C 7.480469 11.242188 7.195312 10.675781 7.195312 10.046875 C 7.195312 9.417969 7.480469 8.847656 7.941406 8.4375 C 8.402344 8.023438 9.035156 7.769531 9.742188 7.769531 Z M 3.410156 8.402344 C 3.222656 8.402344 3.070312 8.265625 3.070312 8.097656 C 3.070312 7.925781 3.222656 7.789062 3.410156 7.789062 L 5.625 7.789062 C 5.8125 7.789062 5.964844 7.929688 5.964844 8.097656 C 5.964844 8.265625 5.8125 8.402344 5.625 8.402344 Z M 3.410156 4.085938 C 3.222656 4.085938 3.070312 3.949219 3.070312 3.78125 C 3.070312 3.613281 3.222656 3.476562 3.410156 3.476562 L 7.90625 3.476562 C 8.09375 3.476562 8.246094 3.613281 8.246094 3.78125 C 8.246094 3.949219 8.09375 4.085938 7.90625 4.085938 Z M 6.082031 11.265625 C 6.269531 11.265625 6.421875 11.402344 6.421875 11.570312 C 6.421875 11.738281 6.269531 11.875 6.082031 11.875 L 0.792969 11.875 C 0.574219 11.875 0.375 11.792969 0.234375 11.664062 C 0.0898438 11.539062 0 11.359375 0 11.164062 L 0 0.710938 C 0 0.511719 0.0898438 0.335938 0.234375 0.207031 C 0.378906 0.078125 0.574219 0 0.792969 0 L 10.519531 0 C 10.738281 0 10.9375 0.078125 11.078125 0.210938 C 11.222656 0.339844 11.3125 0.511719 11.3125 0.710938 L 11.3125 6.878906 C 11.3125 7.046875 11.160156 7.183594 10.972656 7.183594 C 10.785156 7.183594 10.632812 7.046875 10.632812 6.878906 L 10.632812 0.710938 C 10.632812 0.679688 10.617188 0.660156 10.601562 0.640625 C 10.578125 0.621094 10.550781 0.609375 10.523438 0.609375 L 0.796875 0.609375 C 0.765625 0.609375 0.738281 0.625 0.71875 0.640625 C 0.699219 0.660156 0.6875 0.683594 0.6875 0.710938 L 0.6875 11.164062 C 0.6875 11.191406 0.699219 11.214844 0.71875 11.234375 C 0.738281 11.253906 0.769531 11.261719 0.796875 11.261719 L 6.085938 11.261719 Z M 3.410156 6.242188 C 3.222656 6.242188 3.070312 6.109375 3.070312 5.941406 C 3.070312 5.773438 3.222656 5.636719 3.410156 5.636719 L 7.90625 5.636719 C 8.09375 5.636719 8.246094 5.773438 8.246094 5.941406 C 8.246094 6.109375 8.09375 6.242188 7.90625 6.242188 Z M 11.203125 8.738281 C 10.832031 8.402344 10.3125 8.191406 9.742188 8.191406 C 9.167969 8.191406 8.652344 8.402344 8.277344 8.738281 C 7.902344 9.070312 7.667969 9.535156 7.667969 10.046875 C 7.667969 10.558594 7.902344 11.019531 8.277344 11.355469 C 8.652344 11.691406 9.167969 11.898438 9.742188 11.898438 C 10.3125 11.898438 10.832031 11.691406 11.203125 11.355469 C 11.578125 11.019531 11.8125 10.558594 11.8125 10.046875 C 11.8125 9.535156 11.578125 9.070312 11.203125 8.738281 Z M 11.203125 8.738281 "/>
</g>
</svg>
