<?xml version="1.0" encoding="UTF-8"?>
<svg xmlns="http://www.w3.org/2000/svg" xmlns:xlink="http://www.w3.org/1999/xlink" width="13px" height="13px" viewBox="0 0 13 13" version="1.1">
<g id="surface1">
<path style=" stroke:none;fill-rule:nonzero;fill:rgb(0%,0%,0%);fill-opacity:1;" d="M 9.582031 7.484375 C 10.316406 7.484375 10.980469 7.753906 11.464844 8.1875 C 11.945312 8.621094 12.242188 9.222656 12.242188 9.886719 C 12.242188 10.371094 12.082031 10.824219 11.808594 11.199219 L 12.960938 12.332031 L 12.164062 12.988281 L 11.054688 11.882812 C 10.632812 12.136719 10.125 12.285156 9.582031 12.285156 C 8.847656 12.285156 8.183594 12.015625 7.699219 11.582031 C 7.21875 11.148438 6.921875 10.550781 6.921875 9.886719 C 6.921875 9.222656 7.21875 8.621094 7.699219 8.1875 C 8.183594 7.753906 8.847656 7.484375 9.582031 7.484375 Z M 2.316406 6.03125 C 2.148438 6.03125 2.007812 5.894531 2.007812 5.726562 C 2.007812 5.554688 2.144531 5.421875 2.316406 5.421875 L 4.96875 5.421875 C 5.136719 5.421875 5.277344 5.558594 5.277344 5.726562 C 5.277344 5.898438 5.140625 6.03125 4.96875 6.03125 Z M 9.941406 1.859375 L 11.054688 1.859375 C 11.269531 1.859375 11.472656 1.9375 11.613281 2.070312 C 11.757812 2.199219 11.847656 2.378906 11.847656 2.574219 L 11.847656 6.488281 C 11.824219 6.710938 11.214844 6.714844 11.160156 6.488281 L 11.160156 2.574219 C 11.160156 2.546875 11.148438 2.519531 11.128906 2.5 C 11.109375 2.484375 11.082031 2.472656 11.050781 2.472656 L 9.9375 2.472656 L 9.9375 6.488281 C 9.878906 6.691406 9.371094 6.722656 9.257812 6.488281 L 9.257812 0.714844 C 9.257812 0.6875 9.242188 0.660156 9.222656 0.644531 C 9.203125 0.625 9.175781 0.613281 9.144531 0.613281 L 0.789062 0.613281 C 0.757812 0.613281 0.730469 0.625 0.710938 0.644531 C 0.6875 0.660156 0.675781 0.6875 0.675781 0.714844 L 0.675781 9.234375 C 0.675781 9.261719 0.6875 9.289062 0.710938 9.304688 C 0.730469 9.324219 0.757812 9.335938 0.789062 9.335938 L 5.769531 9.335938 C 6.113281 9.367188 6.125 9.902344 5.769531 9.949219 L 2.582031 9.949219 L 2.582031 11.089844 C 2.582031 11.121094 2.59375 11.144531 2.613281 11.164062 C 2.636719 11.183594 2.664062 11.191406 2.695312 11.191406 L 5.769531 11.191406 C 6.019531 11.21875 6.097656 11.726562 5.769531 11.808594 L 2.699219 11.808594 C 2.480469 11.808594 2.28125 11.726562 2.140625 11.597656 C 1.996094 11.464844 1.90625 11.289062 1.90625 11.089844 L 1.90625 9.949219 L 0.792969 9.949219 C 0.578125 9.949219 0.375 9.867188 0.234375 9.738281 C 0.0898438 9.605469 0 9.429688 0 9.234375 L 0 0.714844 C 0 0.519531 0.0898438 0.339844 0.234375 0.210938 C 0.378906 0.078125 0.578125 0 0.792969 0 L 9.148438 0 C 9.363281 0 9.566406 0.078125 9.707031 0.210938 C 9.851562 0.34375 9.941406 0.519531 9.941406 0.714844 Z M 2.3125 2.753906 C 2.144531 2.753906 2.003906 2.613281 2.003906 2.445312 C 2.003906 2.277344 2.140625 2.140625 2.3125 2.140625 L 7.617188 2.140625 C 7.785156 2.140625 7.925781 2.28125 7.925781 2.445312 C 7.925781 2.617188 7.789062 2.753906 7.617188 2.753906 Z M 2.3125 4.394531 C 2.144531 4.394531 2.003906 4.253906 2.003906 4.085938 C 2.003906 3.917969 2.140625 3.78125 2.3125 3.78125 L 7.617188 3.78125 C 7.785156 3.78125 7.925781 3.921875 7.925781 4.085938 C 7.925781 4.257812 7.789062 4.394531 7.617188 4.394531 Z M 10.996094 8.609375 C 10.632812 8.28125 10.132812 8.078125 9.582031 8.078125 C 9.03125 8.078125 8.527344 8.28125 8.167969 8.609375 C 7.804688 8.9375 7.582031 9.386719 7.582031 9.886719 C 7.582031 10.382812 7.804688 10.835938 8.167969 11.160156 C 8.527344 11.488281 9.03125 11.691406 9.582031 11.691406 C 10.132812 11.691406 10.632812 11.488281 10.996094 11.160156 C 11.359375 10.835938 11.582031 10.382812 11.582031 9.886719 C 11.582031 9.386719 11.359375 8.9375 10.996094 8.609375 Z M 10.996094 8.609375 "/>
</g>
</svg>
