<?xml version="1.0" encoding="UTF-8"?>
<svg xmlns="http://www.w3.org/2000/svg" xmlns:xlink="http://www.w3.org/1999/xlink" width="13px" height="13px" viewBox="0 0 13 13" version="1.1">
<g id="surface1">
<path style=" stroke:none;fill-rule:nonzero;fill:rgb(0%,0%,0%);fill-opacity:1;" d="M 8.710938 7.613281 C 9.339844 7.613281 9.910156 7.867188 10.320312 8.269531 C 10.734375 8.671875 10.988281 9.230469 10.988281 9.847656 C 10.988281 10.296875 10.851562 10.71875 10.617188 11.066406 L 11.601562 12.121094 L 10.921875 12.730469 L 9.972656 11.707031 C 9.613281 11.941406 9.175781 12.078125 8.710938 12.078125 C 8.082031 12.078125 7.511719 11.828125 7.101562 11.425781 C 6.6875 11.019531 6.433594 10.464844 6.433594 9.847656 C 6.433594 9.230469 6.691406 8.675781 7.101562 8.269531 C 7.511719 7.867188 8.082031 7.617188 8.710938 7.617188 Z M 3.050781 8.238281 C 2.882812 8.238281 2.746094 8.101562 2.746094 7.933594 C 2.746094 7.765625 2.882812 7.636719 3.050781 7.636719 L 5.03125 7.636719 C 5.199219 7.636719 5.335938 7.769531 5.335938 7.933594 C 5.335938 8.101562 5.199219 8.238281 5.03125 8.238281 Z M 3.050781 4.003906 C 2.882812 4.003906 2.746094 3.871094 2.746094 3.707031 C 2.746094 3.539062 2.882812 3.40625 3.050781 3.40625 L 7.070312 3.40625 C 7.238281 3.40625 7.375 3.539062 7.375 3.707031 C 7.375 3.871094 7.238281 4.003906 7.070312 4.003906 Z M 5.4375 11.042969 C 5.605469 11.042969 5.742188 11.175781 5.742188 11.339844 C 5.742188 11.503906 5.605469 11.636719 5.4375 11.636719 L 0.710938 11.636719 C 0.511719 11.636719 0.335938 11.558594 0.210938 11.429688 C 0.078125 11.308594 0 11.132812 0 10.941406 L 0 0.695312 C 0 0.503906 0.078125 0.328125 0.210938 0.203125 C 0.339844 0.0742188 0.511719 0 0.710938 0 L 9.40625 0 C 9.601562 0 9.78125 0.078125 9.90625 0.203125 C 10.035156 0.332031 10.117188 0.5 10.117188 0.695312 L 10.117188 6.742188 C 10.117188 6.90625 9.980469 7.039062 9.8125 7.039062 C 9.644531 7.039062 9.507812 6.90625 9.507812 6.742188 L 9.507812 0.695312 C 9.507812 0.667969 9.496094 0.644531 9.480469 0.625 C 9.460938 0.605469 9.433594 0.597656 9.410156 0.597656 L 0.710938 0.597656 C 0.683594 0.597656 0.660156 0.609375 0.644531 0.625 C 0.625 0.644531 0.613281 0.667969 0.613281 0.695312 L 0.613281 10.941406 C 0.613281 10.96875 0.625 10.992188 0.644531 11.011719 C 0.660156 11.027344 0.6875 11.039062 0.710938 11.039062 L 5.441406 11.039062 L 5.4375 11.039062 Z M 3.050781 6.121094 C 2.882812 6.121094 2.746094 5.988281 2.746094 5.824219 C 2.746094 5.65625 2.882812 5.523438 3.050781 5.523438 L 7.070312 5.523438 C 7.238281 5.523438 7.375 5.65625 7.375 5.824219 C 7.375 5.988281 7.238281 6.121094 7.070312 6.121094 Z M 10.019531 8.5625 C 9.683594 8.234375 9.222656 8.03125 8.710938 8.03125 C 8.199219 8.03125 7.738281 8.234375 7.402344 8.5625 C 7.066406 8.890625 6.859375 9.347656 6.859375 9.847656 C 6.859375 10.347656 7.066406 10.800781 7.402344 11.128906 C 7.738281 11.457031 8.199219 11.660156 8.710938 11.660156 C 9.222656 11.660156 9.683594 11.457031 10.019531 11.128906 C 10.355469 10.800781 10.5625 10.347656 10.5625 9.847656 C 10.5625 9.347656 10.355469 8.890625 10.019531 8.5625 Z M 10.019531 8.5625 "/>
</g>
</svg>
